<svg xmlns="http://www.w3.org/2000/svg" width="476" height="518" viewBox="0 0 476 518">
  <g id="Grupo_3364" data-name="Grupo 3364" transform="translate(-1166 -5379)">
    <path id="Rectángulo_1448" data-name="Rectángulo 1448" d="M30,0H333a30,30,0,0,1,30,30V518a0,0,0,0,1,0,0H0a0,0,0,0,1,0,0V30A30,30,0,0,1,30,0Z" transform="translate(1222 5379)" fill="#fff"/>
    <path id="Rectángulo_1449" data-name="Rectángulo 1449" d="M30,0H313a30,30,0,0,1,30,30V509a0,0,0,0,1,0,0H0a0,0,0,0,1,0,0V30A30,30,0,0,1,30,0Z" transform="translate(1232 5388)" fill="#2f2f2f"/>
    <rect id="Rectángulo_1450" data-name="Rectángulo 1450" width="114" height="115" rx="40" transform="translate(1528 5438)" fill="#399ed8"/>
    <rect id="Rectángulo_1452" data-name="Rectángulo 1452" width="110" height="58" rx="29" transform="translate(1166 5727)" fill="#fff"/>
  </g>
</svg>
