<svg xmlns="http://www.w3.org/2000/svg" width="58.667" height="56" viewBox="0 0 58.667 56">
  <path id="Trazado_2502" data-name="Trazado 2502" d="M26.467,31.135l-6.333-6.6-3.067,3,9.4,9.335,15.133-15-3-2.733ZM36.532,5.267l4.6,6.668,7.8,1.865-.8,7.933L53.533,28l-5.4,6.133.8,7.932-7.8,2-4.467,6.665-7.335-3-7.132,3-4.667-6.665L9.733,42.2l.8-8.065L5.133,28l5.4-6.268-.8-7.933,7.8-1.865L22,5.267l7.332,3ZM38.267,0,29.332,4.135,20.4,0,15.333,8.733,5.267,10.8,6.4,20.6,0,28l6.4,7.465-1.133,9.8,10.067,2.067L20.4,56l8.932-4.132L38.267,56,43.4,47.335l10-2.067-1.133-9.8L58.667,28l-6.4-7.4L53.4,10.8l-10-2.067Z" fill="#044320"/>
</svg>
