<svg xmlns="http://www.w3.org/2000/svg" xmlns:xlink="http://www.w3.org/1999/xlink" width="96.476" height="96.04" viewBox="0 0 96.476 96.04">
  <defs>
    <clipPath id="clip-path">
      <path id="Trazado_3036" data-name="Trazado 3036" d="M411.5,315.747l0-.02c0,.006,0,.013,0,.02m-34.631,61.561a57.517,57.517,0,0,1-6.6-2.091c2.994-3.956,7.239-6.522,12.038-4.03.106.055.316.176.4.222s.265.16.4.228l-.134,1.169c-3.054-.85-5.692-.2-8.9.978,2.983-.252,6.728-1.174,8.914.528a4.954,4.954,0,0,1-4.867,3.078,10.1,10.1,0,0,1-1.253-.083M359.8,366.552c5.538-1.839,10.42-2.5,12.434,3.078-2.329-.965-3.915-2.343-7.467-2.3,2.443,1.119,4.7,1.561,6.5,3.638a6.474,6.474,0,0,1-3.478,1.113c-3.243,0-5.8-2.974-7.988-5.531m33.5,1.828c-2.524-2.917,1.045-7.985,4.089-10.165,1.161,5.333,3.8,9.131-1.579,11.381l-.444-5.958c-.984,2-.906,3.029-.539,5.657-.586-.283-.742-.25-.813-.218a.146.146,0,0,1-.053.021c-.055,0-.138-.114-.661-.718m-27.994-12.69c4.524.812,8.876,2.093,8.9,7.471-2.345-.213-5.862-2.883-6.552-4.654,1.348,3.526,3.891,4.233,5.706,6.107a10.267,10.267,0,0,1-1.295.087c-4.594,0-5.734-3.692-6.758-9.011m47.93,15.923c-8.351-.7-10.328-16.914.054-16.28,9.719.594,9.745,16.31.64,16.309-.225,0-.457-.01-.694-.03m2.267-22.744c5.047-1.548,9.759-2.733,11.493,2.63-2.106-.855-4.328-2.048-7.54-1.936a10.591,10.591,0,0,1,6.963,3.745,8.607,8.607,0,0,1-3.442.846c-2.547,0-4.655-1.7-7.474-5.286m-12.42-4.741c.164.075.368,0,.494.222s.369.168.469.232c.314.2.928.647,1.14.832a12.3,12.3,0,0,1,1.782,2.054c2.38,4.019-.335,4.947-.413,5.023l-.719.094c-4.953-.4-2.611-5.286-2.752-8.457m-15.656,4.611c-1.452-1.623-5-6.211-5.965-7.717,7.664-1.591,16.548-.982,17.181,8.213-4.043-2.934-5.944-5.582-10.957-6.283,2.572,1.731,7.432,3.612,9.34,7.7a12.391,12.391,0,0,1-4.18.879c-2.2,0-3.8-.98-5.419-2.789m-16.645-15.544c2.072,6.444,7.675,15.438-.348,17.863-1.552-4.947-.943-6.6-1.356-11.1-1.732,3.206-1.039,7.641-.053,12.01-9.223-5.487-1.224-16.663,1.757-18.769m68.083-3.8c1.491,5.441,3.875,8.758-1.316,11.491l-.424-6.674c-1.185,3.286-.479,3.265-.85,6.973-4.41-4.732-.645-9.148,2.59-11.791m-58.254-2.374,1.831,2.987c3.713-.641,6.854-1.219,9.793-.427,2.329.628,5.495,2.987,4.809,6.429-2.895-2.543-5.66-4.267-10.043-4.639a20.9,20.9,0,0,1,9.215,6c-5.8,2.907-9.715-.863-12.263-5.646-1.241,1.817-.214,3.315-3.14,5.069l-1.134.013c-4.569-2.74-.9-7.784.932-9.785m16.444-6.48a.714.714,0,0,0,.162.01.332.332,0,0,1,.331.127l6.688,2.507c3.109,1.5,3.774,2.8,3.747,6.583-2.821.254-6.86-3.29-8.239-5.712,1.257,3.535,5.11,6.357,7.3,7.467a8.988,8.988,0,0,1-2.265.314c-5.047,0-6.966-5.316-7.729-11.3m-8.942,5.008a11.41,11.41,0,0,1-5.669-4.511c4.793-1.474,7.306-2.238,9.889,1.011-.084,1.952-1.063,3.663-3.074,3.663a4.4,4.4,0,0,1-1.146-.164m42.524-7.314c.87,6.53,4.276,12.72-2.608,15.362-.862-4.5-.146-6.578.314-10.311-2.574,4.686-1.248,5.377-1.907,10.6-6.809-6.292,1.278-14.373,4.2-15.647m-33.793-3.353c4.438-1.467,5.8-1.651,8.681.907a8.565,8.565,0,0,1-.661,2.7,5.593,5.593,0,0,1-2.15.464c-2.5,0-4.242-2.034-5.871-4.07m13.431,7.841c-.94-2.7-1.3-8.416.29-11.039l7.293,5.762c3.214,3.279,2.8,6.012,1.541,9.036-3.956-1-7.746-9.832-7.9-10.734.97,6.345,3.2,8.357,6.23,12.343-3.429-.117-6.048-1.337-7.452-5.369m-35.7-2.875c-29.407,23.466-19.873,72.72,16.9,83.479,21.3,6.232,26.225-11.837,7.878-21.086-2.711-1.367-6.045-2.995-8.443-4.417-3.162-1.876-4.938-4.124-7.8-6.185-.962-2.325-2.3-5.31-3.7-6.812-2.333-2.5-3.227-3.446-3.6-7.6-.41-4.539,1.418-10.414,3.119-13.647l8.028,9.515c3.163,4.937,2.723,9.794-1.363,12.365-3.342-5.9-3.849-7.545-5.94-14.73-2.182,9.4,5.708,21.863,20.233,23.477a37.585,37.585,0,0,0,5.109.115c4.132-.1,7.78-.2,10.26,3.442,3.279,4.816,1.514,13.062,1.878,18.15,2.23-3.8,4.3-14.88,4.511-18.967.576-11.4,4.551-9.361,7.53-17.574,6.244-17.213-7.495-26.564-24.335-20.886,5.68-.386,12.86-.477,16.867,1.946-4.508,8.824-12.374,3.84-16.833,1.929l-5.989-2.487c3.555-3.941,13.474-9.461,19.4-6.4,3.457,1.787.526,1.57,5.674,2.246,19.755,2.6,12.447,32.88,6.134,46.46-1.951,4.2-3.361,6.85-5.532,10.769l-6.32,10.391c13.182-1.636,25.466-14.706,31.147-26.21,5.48-11.1,6.468-28.452-1.265-42.966a49,49,0,0,0-42.669-25.6c-10.269,0-21,3.4-30.874,11.281" transform="translate(-357.231 -308.566)" fill="none"/>
    </clipPath>
  </defs>
  <g id="Grupo_1945" data-name="Grupo 1945" transform="translate(0 0)">
    <g id="Grupo_1944" data-name="Grupo 1944" clip-path="url(#clip-path)">
      <rect id="Rectángulo_1314" data-name="Rectángulo 1314" width="110.682" height="111.41" transform="translate(-12.061 -10.418)" fill="#004321"/>
    </g>
  </g>
</svg>
