<svg id="Grupo_3871" data-name="Grupo 3871" xmlns="http://www.w3.org/2000/svg" xmlns:xlink="http://www.w3.org/1999/xlink" width="22.302" height="21.639" viewBox="0 0 22.302 21.639">
  <defs>
    <clipPath id="clip-path">
      <rect id="Rectángulo_2198" data-name="Rectángulo 2198" width="22.302" height="21.639" fill="#3c3c3b"/>
    </clipPath>
  </defs>
  <g id="Grupo_3870" data-name="Grupo 3870" transform="translate(0 0)" clip-path="url(#clip-path)">
    <path id="Trazado_7449" data-name="Trazado 7449" d="M11.151,10.454A5.013,5.013,0,0,1,5.924,5.227,5.013,5.013,0,0,1,11.151,0a5.013,5.013,0,0,1,5.227,5.227,5.013,5.013,0,0,1-5.227,5.227M0,21.639V18.364A3.836,3.836,0,0,1,.662,16.1,4.251,4.251,0,0,1,2.37,14.67,26.185,26.185,0,0,1,6.847,13.1a18.1,18.1,0,0,1,4.3-.523,17.326,17.326,0,0,1,4.286.54A29.684,29.684,0,0,1,19.9,14.67,4.2,4.2,0,0,1,21.639,16.1a3.836,3.836,0,0,1,.662,2.265v3.276Z" transform="translate(0 0)" fill="#3c3c3b"/>
  </g>
</svg>
