<svg xmlns="http://www.w3.org/2000/svg" width="10.245" height="10.245" viewBox="0 0 10.245 10.245">
  <g id="Grupo_2285" data-name="Grupo 2285" transform="translate(16.245 16.245) rotate(180)">
    <path id="Trazado_911" data-name="Trazado 911" d="M11.123,6a5.123,5.123,0,1,0,5.123,5.123A5.123,5.123,0,0,0,11.123,6Zm0,9.221a4.1,4.1,0,1,1,4.1-4.1A4.1,4.1,0,0,1,11.123,15.221Z" fill="#fff"/>
    <path id="Trazado_912" data-name="Trazado 912" d="M15.245,13.147l-1.685,1.69-1.685-1.69a.514.514,0,0,0-.727.727L13.2,15.923a.512.512,0,0,0,.727,0l2.049-2.049a.514.514,0,0,0-.727-.727Z" transform="translate(-2.437 -3.412)" fill="#fff"/>
  </g>
</svg>
