<svg xmlns="http://www.w3.org/2000/svg" width="63.48" height="65.669" viewBox="0 0 63.48 65.669">
  <path id="Color_Overlay" data-name="Color Overlay" d="M23.727,65.429l-6.088-4.014a7.1,7.1,0,0,1-3.212-5.939V44.846L9.28,39.752a11.412,11.412,0,0,1,2.262-22.621H26.953L45.892,3.9C47.552,1.464,49.573,0,51.938,0c7.5,0,11.542,14.71,11.542,28.551S59.434,57.1,51.938,57.1c-2.365,0-4.386-1.464-6.045-3.9l-17.5-12.222L26.272,51.467a1.664,1.664,0,0,0,.468,1.522,7.067,7.067,0,0,1,2.115,5.053v.979a7.054,7.054,0,0,1-2.112,5.048l-1.194,1.182a1.459,1.459,0,0,1-1.022.417A1.435,1.435,0,0,1,23.727,65.429ZM16.889,43.244a1.421,1.421,0,0,1,.423,1.011V55.475a4.266,4.266,0,0,0,1.928,3.563l5.1,3.366.357-.354a4.242,4.242,0,0,0,1.267-3.032V58.04A4.236,4.236,0,0,0,24.7,55.01,4.508,4.508,0,0,1,23.441,50.9l2.208-10.932H13.582ZM48.367,5.391a1.412,1.412,0,0,1-.134.25C45.191,10.2,43.3,18.92,43.282,28.428v.246c.016,9.509,1.909,18.23,4.951,22.786a1.455,1.455,0,0,1,.133.25c1.147,1.642,2.379,2.537,3.572,2.537,4.094,0,8.656-10.553,8.656-25.7s-4.562-25.7-8.656-25.7C50.746,2.855,49.514,3.75,48.367,5.391ZM20.2,28.551c0,3.952,1.887,8.566,7.213,8.566h.1a1.443,1.443,0,0,1,.73.256L43.315,47.9a47.635,47.635,0,0,1-2.046-8.256A68.86,68.86,0,0,1,40.4,28.983c0-.014,0-.03,0-.044v-.073c0-.041,0-.083,0-.123V28.36c0-.04,0-.083,0-.123v-.074c0-.014,0-.03,0-.044A68.926,68.926,0,0,1,41.27,17.45,47.666,47.666,0,0,1,43.316,9.2L28.293,19.688a1.442,1.442,0,0,1-.742.292h0l-.054,0h-.085C22.085,19.986,20.2,24.6,20.2,28.551Zm-17.313,0a8.622,8.622,0,0,0,8.656,8.566h8.826a12.1,12.1,0,0,1-3.056-8.566,12.106,12.106,0,0,1,3.054-8.565H11.542A8.621,8.621,0,0,0,2.885,28.551ZM49.052,35.69A1.436,1.436,0,0,1,50.5,34.262c2.386,0,4.328-2.561,4.328-5.71s-1.942-5.71-4.328-5.71a1.428,1.428,0,1,1,0-2.855c3.979,0,7.214,3.843,7.214,8.565s-3.235,8.566-7.214,8.566A1.436,1.436,0,0,1,49.052,35.69Z" fill="#fff"/>
</svg>
