<svg id="Componente_25_6" data-name="Componente 25 – 6" xmlns="http://www.w3.org/2000/svg" width="56.132" height="56" viewBox="0 0 56.132 56">
  <path id="Trazado_3008" data-name="Trazado 3008" d="M37.656,56.675V37.846h7.05V30.793h-7.05V25.756c0-1.775.978-3.022,2.391-3.022h4.66l.016-7.01-1.392-.058q-.846-.033-1.694-.032c-3.427,0-6.045.4-7.538,1.184-3.124,1.652-3.782,4.084-3.75,12.527l0,1.447H24.558v7.053H30.6V56.675H9.98a9.089,9.089,0,0,1-9.089-9.07V9.745A9.089,9.089,0,0,1,9.98.675H47.936a9.089,9.089,0,0,1,9.087,9.07V47.607a9.088,9.088,0,0,1-9.087,9.068Z" transform="translate(-0.891 -0.675)" fill="#fff"/>
</svg>
