<svg xmlns="http://www.w3.org/2000/svg" width="65" height="66" viewBox="0 0 65 66">
  <path id="Color_Overlay" data-name="Color Overlay" d="M6.448,66a1.37,1.37,0,0,1-1.359-1.276L3.817,46.742a4.074,4.074,0,0,1-2.794-1.386,4.155,4.155,0,0,1-.991-3.243L1.775,28.022A6.842,6.842,0,0,1,8.531,22h6.724a6.842,6.842,0,0,1,6.756,6.023l1.743,14.091a4.158,4.158,0,0,1-.991,3.243,4.074,4.074,0,0,1-2.794,1.386L18.7,64.724A1.368,1.368,0,0,1,17.341,66ZM4.476,28.363,2.733,42.454a1.367,1.367,0,0,0,.33,1.08A1.342,1.342,0,0,0,4.084,44h1a1.369,1.369,0,0,1,1.359,1.276L7.714,63.25h8.358l1.272-17.974A1.366,1.366,0,0,1,18.7,44h1a1.333,1.333,0,0,0,1.021-.465,1.37,1.37,0,0,0,.33-1.08L19.31,28.363a4.107,4.107,0,0,0-4.055-3.613h-2v1.375a1.362,1.362,0,1,1-2.724,0V24.75h-2A4.107,4.107,0,0,0,4.476,28.363ZM40.49,48.125a4.129,4.129,0,0,1,2.723-3.889V35.75H28.234a1.369,1.369,0,0,1-1.361-1.375V2.75H25.511A1.369,1.369,0,0,1,24.15,1.375,1.367,1.367,0,0,1,25.511,0H63.639a1.375,1.375,0,0,1,0,2.75H62.277V34.375a1.369,1.369,0,0,1-1.362,1.375H45.937v8.486a4.117,4.117,0,1,1-5.447,3.889Zm2.723,0a1.362,1.362,0,1,0,1.362-1.375A1.369,1.369,0,0,0,43.213,48.125ZM29.6,33H59.554V2.75H29.6ZM10.533,37.125v-5.5a1.362,1.362,0,1,1,2.724,0v5.5a1.362,1.362,0,1,1-2.724,0Zm24.511-19.25A9.589,9.589,0,0,1,44.575,8.25a1.369,1.369,0,0,1,1.361,1.333V6.875A1.37,1.37,0,0,1,47.3,5.5a9.59,9.59,0,0,1,9.532,9.625A1.369,1.369,0,0,1,55.468,16.5H47.3a1.369,1.369,0,0,1-1.362-1.375V9.667A1.369,1.369,0,0,1,44.575,11a6.875,6.875,0,1,0,6.808,6.874,1.362,1.362,0,1,1,2.723,0,9.532,9.532,0,1,1-19.063,0ZM48.66,13.75h5.31a6.866,6.866,0,0,0-5.31-5.362ZM5.086,12.375a6.809,6.809,0,1,1,6.808,6.875A6.849,6.849,0,0,1,5.086,12.375Zm2.723,0A4.085,4.085,0,1,0,11.894,8.25,4.108,4.108,0,0,0,7.809,12.375Z" transform="translate(0)" fill="#fff"/>
</svg>
