<svg xmlns="http://www.w3.org/2000/svg" width="66" height="66" viewBox="0 0 66 66">
  <path id="Color_Overlay" data-name="Color Overlay" d="M6.875,66A6.885,6.885,0,0,1,0,59.12V37.1a6.886,6.886,0,0,1,6.875-6.88h13.75a1.376,1.376,0,0,1,0,2.752H6.875A4.131,4.131,0,0,0,2.75,37.1V59.12a4.131,4.131,0,0,0,4.125,4.128h52.25A4.131,4.131,0,0,0,63.25,59.12V37.1a4.131,4.131,0,0,0-4.125-4.128h-11a1.376,1.376,0,0,1,0-2.752h11A6.886,6.886,0,0,1,66,37.1V59.12A6.885,6.885,0,0,1,59.125,66Zm16.5-8.255a1.376,1.376,0,0,1,0-2.752h33a1.376,1.376,0,0,1,0,2.752Zm-14.724-.4a1.379,1.379,0,0,1-.258-1.588l5.5-11.008a1.378,1.378,0,0,1,.246-.345l.013-.013L51.679,6.831l-.8-.805L38.1,18.812a1.375,1.375,0,1,1-1.947-1.943L49.9,3.108a1.375,1.375,0,0,1,1.944,0l1.777,1.777,3.393-3.4a5.374,5.374,0,0,1,7.428,0,5.259,5.259,0,0,1,.017,7.453l-3.392,3.394,1.777,1.779A1.375,1.375,0,1,1,60.9,16.062l-1.777-1.779L21.6,51.836h0l0,0a1.371,1.371,0,0,1-.389.273L10.241,57.6a1.379,1.379,0,0,1-1.59-.255ZM12.7,53.289l5.6-2.8-2.8-2.8Zm4.368-7.927,3.555,3.557L57.179,12.335,53.623,8.776ZM58.96,3.436l-3.393,3.4,3.556,3.559,3.393-3.4a2.5,2.5,0,0,0,0-3.542,2.521,2.521,0,0,0-1.791-.729A2.492,2.492,0,0,0,58.96,3.436ZM31.625,49.488a1.376,1.376,0,0,1,0-2.752h24.75a1.376,1.376,0,0,1,0,2.752Zm8.25-8.256a1.376,1.376,0,0,1,0-2.752h16.5a1.376,1.376,0,0,1,0,2.752Z" fill="#fff"/>
</svg>
