<svg id="Componente_26_6" data-name="Componente 26 – 6" xmlns="http://www.w3.org/2000/svg" width="56" height="55.868" viewBox="0 0 56 55.868">
  <path id="Trazado_3009" data-name="Trazado 3009" d="M47.676,55.868H9.809A9.068,9.068,0,0,1,.742,46.82V9.049A9.068,9.068,0,0,1,9.809,0H47.676a9.068,9.068,0,0,1,9.066,9.049V46.821a9.066,9.066,0,0,1-9.066,9.047Zm-28.143-44.3H38.324a7.227,7.227,0,0,1,7.227,7.227V37.582a7.227,7.227,0,0,1-7.227,7.227H19.533a7.227,7.227,0,0,1-7.227-7.227V18.791a7.227,7.227,0,0,1,7.227-7.227Zm0-4.336A11.564,11.564,0,0,0,7.969,18.791V37.582A11.564,11.564,0,0,0,19.533,49.146H38.324A11.564,11.564,0,0,0,49.888,37.582V18.791A11.564,11.564,0,0,0,38.324,7.227H19.533Zm9.4,31.077A10.118,10.118,0,1,0,18.81,28.186,10.118,10.118,0,0,0,28.928,38.3Zm0-4.336a5.782,5.782,0,1,1,5.782-5.782A5.782,5.782,0,0,1,28.928,33.968ZM39.769,20.236a2.891,2.891,0,1,0-2.891-2.891A2.891,2.891,0,0,0,39.769,20.236Z" transform="translate(-0.742)" fill="#fff"/>
</svg>
