<svg xmlns="http://www.w3.org/2000/svg" xmlns:xlink="http://www.w3.org/1999/xlink" width="272.105" height="111.41" viewBox="0 0 272.105 111.41">
  <defs>
    <clipPath id="clip-path">
      <rect id="Rect치ngulo_1313" data-name="Rect치ngulo 1313" width="272.105" height="111.41" fill="none"/>
    </clipPath>
  </defs>
  <g id="Grupo_1942" data-name="Grupo 1942" clip-path="url(#clip-path)">
    <path id="Trazado_3010" data-name="Trazado 3010" d="M4955.591,1193.057q-8.938,0-8.942,7.016v23.551a5.3,5.3,0,0,0,2.124,4.695,8.505,8.505,0,0,0,4.961,1.47,8.28,8.28,0,0,0,5.529-2.3l1.032,1.986h3.792v-17.9h-8.771v5.52h1.548v6.75c0,.593-.379.886-1.135.886s-1.135-.292-1.135-.877v-24.97q0-.877,1.135-.877t1.135.877v7.275h7.223v-6.707q0-6.4-8.5-6.4" transform="translate(-4779.643 -1152.777)" fill="#004321"/>
    <path id="Trazado_3011" data-name="Trazado 3011" d="M4457.707,1221h6.75v-4.385h-6.75v-9.751h7.48v-4.643h-15.425v36.114h15.529V1233.7h-7.584Z" transform="translate(-4299.531 -1161.637)" fill="#004321"/>
    <path id="Trazado_3012" data-name="Trazado 3012" d="M3814.2,1218.692l-4.591-16.466h-9.029v36.114h6.6V1219.1l5.46,19.243h8.16v-36.114h-6.6Z" transform="translate(-3672.262 -1161.637)" fill="#004321"/>
    <path id="Trazado_3013" data-name="Trazado 3013" d="M7540.036,1213.71a62.174,62.174,0,0,0-6.336-6.638q-2.684-2.67-2.683-4.678l-.155-2.347q0-2.038,1.419-2.038c.808,0,1.212.361,1.212,1.075v6.621h7.223v-6.251q0-6.4-8.238-6.4-9.195,0-9.2,7.016v4.05a6.116,6.116,0,0,0,1.238,3.706,71.5,71.5,0,0,0,6.3,6.586q2.619,2.644,2.623,4.609v4.273c0,.817-.481,1.229-1.445,1.229q-1.5,0-1.5-1.238V1215h-7.222v8.237q0,6.552,8.891,6.552,9.222,0,9.217-7.2v-4.6a7.163,7.163,0,0,0-1.35-4.282" transform="translate(-7269.281 -1152.777)" fill="#004321"/>
    <rect id="Rect치ngulo_1312" data-name="Rect치ngulo 1312" width="7.945" height="36.114" transform="translate(224.848 40.589)" fill="#004321"/>
    <path id="Trazado_3014" data-name="Trazado 3014" d="M6948.887,1193.057q-9.092,0-9.089,7.016V1223.3q0,6.487,9.046,6.492a11.391,11.391,0,0,0,6.509-1.694,5.519,5.519,0,0,0,2.5-4.85v-23.224q0-6.965-8.968-6.965m1.229,30.593q0,1.083-1.264,1.083-1.316,0-1.316-1.083v-24.557q0-1.083,1.316-1.083,1.263,0,1.264,1.083Z" transform="translate(-6705.5 -1152.777)" fill="#004321"/>
    <path id="Trazado_3015" data-name="Trazado 3015" d="M5521.389,1193.057q-9.093,0-9.088,7.016V1223.3q0,6.487,9.046,6.492a11.393,11.393,0,0,0,6.509-1.694,5.518,5.518,0,0,0,2.5-4.85v-23.224q0-6.965-8.968-6.965m1.229,30.593q0,1.083-1.264,1.083-1.315,0-1.315-1.083v-24.557q0-1.083,1.315-1.083,1.263,0,1.264,1.083Z" transform="translate(-5326.197 -1152.777)" fill="#004321"/>
    <path id="Trazado_3016" data-name="Trazado 3016" d="M6104.979,1193.057q-9.2,0-9.2,7.016V1223.3q0,6.487,9.2,6.492a10.707,10.707,0,0,0,5.709-1.548,4.7,4.7,0,0,0,2.527-4.127v-9.183h-7.222v8.917c0,.593-.369.886-1.109.886q-1.162,0-1.161-.877v-24.97q0-.877,1.161-.877,1.11,0,1.109.877v7.12h7.222v-6.552q0-6.4-8.236-6.4" transform="translate(-5889.976 -1152.777)" fill="#004321"/>
    <path id="Trazado_3017" data-name="Trazado 3017" d="M4494.022,2518.385a5.05,5.05,0,0,1-2.355,1.346c-.457,0-.687-.186-.687-.557a2.921,2.921,0,0,1,.424-1.195,7.2,7.2,0,0,1,1.054-1.469,10.387,10.387,0,0,0,.751-.848.918.918,0,0,0,.218-.537,2.534,2.534,0,0,0-.129-.783.824.824,0,0,0-.331-.5.837.837,0,0,0-.344-.049,27.856,27.856,0,0,0-3.08.38,2.262,2.262,0,0,0,.371-.815c0-.153-.081-.226-.237-.226a.763.763,0,0,0-.324.081,2.781,2.781,0,0,0-.944.735,6.247,6.247,0,0,0-.876,1.223,2.421,2.421,0,0,0-.354,1.078.807.807,0,0,0,.173.565,1.28,1.28,0,0,0,.549.323,11.189,11.189,0,0,1-.848,1.143h0V2519c-.04.049-.081.1-.121.145v.049a8.521,8.521,0,0,0,2.128-2.665c.165-.032.4-.076.71-.129s.6-.109.876-.162.525-.1.747-.149a16.989,16.989,0,0,0-1.13,1.522,7.977,7.977,0,0,0-.763,1.413,3.164,3.164,0,0,0-.262,1.159,2.211,2.211,0,0,0,.331,1.316,1,1,0,0,0,.827.456,1.88,1.88,0,0,0,.973-.347,8.8,8.8,0,0,0,1.183-.941c.4-.365.892-.86,1.491-1.478a4.7,4.7,0,0,1-.033-.556,2.284,2.284,0,0,1,.014-.251" transform="translate(-4335.445 -2428.287)" fill="#419e47" fill-rule="evenodd"/>
    <path id="Trazado_3018" data-name="Trazado 3018" d="M4707.163,2372.932a21.747,21.747,0,0,1-1.785,1.566,1.932,1.932,0,0,1-1.042.469c-.457,0-.687-.355-.687-1.066a6.243,6.243,0,0,1,.625-2.547,26.124,26.124,0,0,1,1.5-2.794c.586-.948,1.175-1.917,1.777-2.915a5.208,5.208,0,0,0,.9-2.112.859.859,0,0,0-.222-.573.625.625,0,0,0-.477-.254c-.157,0-.424.242-.795.722a19.051,19.051,0,0,0-1.376,2.2q-.824,1.477-1.732,3.379a1.512,1.512,0,0,0-1.139-.727,5.138,5.138,0,0,0-2.127.767,10.123,10.123,0,0,0-2.531,1.934,3.594,3.594,0,0,0-1.1,2.057l.153-.124v.8l-.132.136a4.688,4.688,0,0,0,.236,1.006,4.464,4.464,0,0,0,.659,1.264q.381.5.69.5a1.639,1.639,0,0,0,.7-.408,16.1,16.1,0,0,0,1.336-1.235c.549-.553,1.167-1.223,1.861-2.01a11.564,11.564,0,0,0-.287,2.447,2.584,2.584,0,0,0,.246,1.267.85.85,0,0,0,.8.424q1.36,0,3.843-3.174a4.771,4.771,0,0,1,.1-.971Zm-4.143-1.958a3.272,3.272,0,0,1-.545.739,13.324,13.324,0,0,1-1.014.916c-.46.392-.759.646-.892.763-.1.081-.3.258-.61.533a8.3,8.3,0,0,1-.678.557.718.718,0,0,1-.38.141.393.393,0,0,1-.294-.129.489.489,0,0,1-.116-.331,3.725,3.725,0,0,1,.2-.981,2.01,2.01,0,0,1,.461-.888,10.054,10.054,0,0,1,1.716-1.082,15.494,15.494,0,0,1,2.47-1.143,2.944,2.944,0,0,1-.318.9" transform="translate(-4538.378 -2282.937)" fill="#419e47" fill-rule="evenodd"/>
    <path id="Trazado_3019" data-name="Trazado 3019" d="M7167.738,2434.666a.864.864,0,0,0,.562.226,1.352,1.352,0,0,0,1.038-.614,1.891,1.891,0,0,0,.484-1.126.822.822,0,0,0-.234-.634.84.84,0,0,0-.594-.218,1.361,1.361,0,0,0-1.025.638,1.98,1.98,0,0,0-.5,1.162.711.711,0,0,0,.266.565" transform="translate(-6925.487 -2350.182)" fill="#419e47" fill-rule="evenodd"/>
    <path id="Trazado_3020" data-name="Trazado 3020" d="M3911.468,2325.3a5.519,5.519,0,0,0,.444-1.708c0-.363-.141-.545-.427-.545a.536.536,0,0,0-.436.226c-.452.561-.787.993-1.013,1.3a5.588,5.588,0,0,0-.561.948,2.455,2.455,0,0,0-.226,1.042.494.494,0,0,0,.04.178c.028.073.052.141.077.214-.489.856-1.046,1.8-1.671,2.826s-1.183,1.869-1.659,2.539a20.1,20.1,0,0,1-1.449,1.821,11.49,11.49,0,0,1-1.494,1.409,1.28,1.28,0,0,1-.626-1.042,5.033,5.033,0,0,1,.407-1.78q.412-1.036,1.332-2.842.805-1.574,1.563-2.87t1.292-2.127c.355-.557.622-.977.8-1.268a1.688,1.688,0,0,0,.274-.537,2.191,2.191,0,0,0-.492-1.352,1.328,1.328,0,0,0-.989-.642,5.868,5.868,0,0,0-1.59.351,18.394,18.394,0,0,0-2.576,1.1,26,26,0,0,0-3.125,1.889,6.848,6.848,0,0,0-1.986,1.914,5.018,5.018,0,0,0-.557,2.6,1.931,1.931,0,0,0,.052.545c.036.113.129.165.278.165a4.782,4.782,0,0,0,.921-.351,10.048,10.048,0,0,1,1.51-.545c.444-.113.791-.2,1.046-.262a3.857,3.857,0,0,0,.6-.19c.149-.065.222-.149.222-.262s-.177-.19-.533-.19a6.91,6.91,0,0,0-.864.073c-.359.049-.573.073-.634.073-.149,0-.226-.049-.226-.141q0-.109.182-.266c.125-.1.416-.339.884-.7a34.53,34.53,0,0,1,2.971-2.115,3.862,3.862,0,0,1,1.825-.7c.157,0,.238.061.238.178a6.711,6.711,0,0,1-.594,1.022q-.594.944-1.058,1.711c-.315.509-.674,1.159-1.086,1.938q-.587,1.108-1.054,2.249a16.956,16.956,0,0,0-.686,1.958,5.393,5.393,0,0,0-.218,1.332,3.734,3.734,0,0,0,.367,1.643,3.634,3.634,0,0,0,.876,1.211,1.477,1.477,0,0,0,.908.444c.476,0,1.26-.715,2.358-2.14q1.617-2.12,2.9-4.061t2.148-3.516a22.262,22.262,0,0,0,1.308-2.737" transform="translate(-3765.26 -2242.73)" fill="#419e47" fill-rule="evenodd"/>
    <path id="Trazado_3021" data-name="Trazado 3021" d="M4285.435,2524.058q-.883.757-1.5,1.207a6.511,6.511,0,0,1-1.235.723,2.973,2.973,0,0,1-1.2.271,1.137,1.137,0,0,1-.9-.392,1.577,1.577,0,0,1-.343-1.086v-.295a17.541,17.541,0,0,0,2.81-1.4,6.53,6.53,0,0,0,1.7-1.469,2.463,2.463,0,0,0,.557-1.486.906.906,0,0,0-.327-.763,1.382,1.382,0,0,0-.88-.254,3.965,3.965,0,0,0-1.582.391,7.256,7.256,0,0,0-1.789,1.159,8.419,8.419,0,0,0-1.89,2.131,4.437,4.437,0,0,0-.581,2.253,3.65,3.65,0,0,0,.614,2.236,1.98,1.98,0,0,0,1.667.816,3.994,3.994,0,0,0,2.377-.856,14.081,14.081,0,0,0,2.387-2.318v-.722l.12-.145m-4.553-1.628a5.258,5.258,0,0,1,.88-1.029,5.83,5.83,0,0,1,.969-.711,1.677,1.677,0,0,1,.695-.27c.166,0,.247.089.247.27a1.883,1.883,0,0,1-.359.824,5.31,5.31,0,0,1-1.119,1.175,6.835,6.835,0,0,1-1.821,1.03,3.375,3.375,0,0,1,.509-1.288" transform="translate(-4133.829 -2434.063)" fill="#419e47" fill-rule="evenodd"/>
    <path id="Trazado_3022" data-name="Trazado 3022" d="M6830.634,2496.4c-.475.391-.893.714-1.257.969a6.826,6.826,0,0,1-1.146.65,2.682,2.682,0,0,1-1.05.242,4.215,4.215,0,0,1-.674-.073,11.1,11.1,0,0,0,1.74-1.34,5.151,5.151,0,0,0,1.029-1.377,3.29,3.29,0,0,0,.355-1.494,4.381,4.381,0,0,0-.092-.937c-.064-.275-.154-.617-.267-1.025a3.614,3.614,0,0,1-.174-.832,1.305,1.305,0,0,1,.049-.4l-.073-.226a1.226,1.226,0,0,0-.533-.141q-.992,0-1.251,1.457-1.151,1.289-4.2,4.505v.044l.149-.117v.8l-.134.124a4.528,4.528,0,0,0,.118.85,2.58,2.58,0,0,0,.694,1.086,2.869,2.869,0,0,0,2.058.945,4.014,4.014,0,0,0,2.055-.763,17,17,0,0,0,2.575-2.107q-.007-.149-.007-.3a4.321,4.321,0,0,1,.033-.533m-4.777,1.328a6.514,6.514,0,0,0-.734-1.005,2.022,2.022,0,0,0-.97-.416q2.4-2.35,3.133-3.181l.214,1.728c.008.064.017.125.02.189s0,.133,0,.214a2.558,2.558,0,0,1-.432,1.566,2.85,2.85,0,0,1-1.235.9" transform="translate(-6592.734 -2406.334)" fill="#419e47" fill-rule="evenodd"/>
    <path id="Trazado_3023" data-name="Trazado 3023" d="M5917.9,2536.635c-.686.536-1.2.916-1.536,1.135a1.794,1.794,0,0,1-.892.364c-.279,0-.416-.17-.416-.509q0-.908,2.083-3.229c.339-.355.509-.618.509-.792a3.174,3.174,0,0,0-.182-1.058c-.125-.347-.246-.521-.375-.521a1.975,1.975,0,0,0-1.042.44,16.652,16.652,0,0,0-2,1.55,20.118,20.118,0,0,0-1.526,1.542q-.642.739-1.05,1.195c-.274.3-.456.456-.549.456-.149,0-.226-.113-.226-.343q0-.612,1.865-2.685c.189-.2.315-.343.372-.412a1.444,1.444,0,0,0,.161-.238.509.509,0,0,0,.068-.25.435.435,0,0,0-.229-.4,1.256,1.256,0,0,0-.61-.129,1.7,1.7,0,0,0-1.134.585,11.6,11.6,0,0,0-1.4,1.841,6.659,6.659,0,0,0-.585,1.042,2.768,2.768,0,0,0-.149,1.017,4.9,4.9,0,0,0,.319,1.849c.214.529.443.791.7.791a.7.7,0,0,0,.488-.242,9.668,9.668,0,0,0,.772-.949c.351-.469.678-.892.985-1.276a13.507,13.507,0,0,1,1.126-1.215,7.585,7.585,0,0,1,1.692-1.357q-.558.933-.981,1.676c-.287.492-.5.868-.635,1.134a5.071,5.071,0,0,0-.326.763,2.463,2.463,0,0,0-.117.743q0,1.278.969,1.28a2.639,2.639,0,0,0,1.47-.735q.842-.688,2.376-2.2c-.01-.135-.015-.272-.015-.41a3.335,3.335,0,0,1,.03-.453" transform="translate(-5709.552 -2446.541)" fill="#419e47" fill-rule="evenodd"/>
    <path id="Trazado_3024" data-name="Trazado 3024" d="M6554.628,2519.3c-.659.514-1.154.871-1.481,1.078a1.828,1.828,0,0,1-.937.331c-.323,0-.484-.206-.484-.614a2.347,2.347,0,0,1,.25-.844,6.154,6.154,0,0,1,.577-1.037c.412-.59.763-1.1,1.066-1.534s.5-.731.6-.892a2.008,2.008,0,0,0,.194-.4,1.359,1.359,0,0,0,.049-.4,1.706,1.706,0,0,0-.1-.719.407.407,0,0,0-.383-.177.963.963,0,0,0-.618.278c-.21.186-.61.585-1.2,1.2a15.358,15.358,0,0,0-.985,1.2,8.092,8.092,0,0,1-1.074,1.2c-.417.355-.889.763-1.409,1.223s-.9.771-1.118.933a1.051,1.051,0,0,1-.472.242c-.263,0-.392-.169-.392-.509a3.872,3.872,0,0,1,.226-1.066,15.358,15.358,0,0,0,1.789-1.567,9.176,9.176,0,0,0,1.127-1.352,1.943,1.943,0,0,0,.347-.771c0-.069-.113-.141-.343-.206a2.507,2.507,0,0,0-.723-.1,1.993,1.993,0,0,0-.751.1,1.392,1.392,0,0,0-.472.384c-.162.19-.359.424-.6.7-.392.452-.727.852-1,1.207a8.1,8.1,0,0,0-.658.989,3.416,3.416,0,0,0-.335.836c-.018.074-.033.152-.045.232l.182-.168v.876c-.071.094-.142.186-.212.276a4.165,4.165,0,0,0,.192.987,2.487,2.487,0,0,0,.585,1.009,1.173,1.173,0,0,0,.828.371c.38,0,.864-.319,1.462-.961s1.465-1.716,2.608-3.229c-.444.961-.763,1.7-.961,2.208a3.579,3.579,0,0,0-.294,1.211q0,1.187.993,1.187a1.777,1.777,0,0,0,.924-.3,8.58,8.58,0,0,0,1.147-.876q.627-.553,1.913-1.734c-.011-.173-.016-.359-.016-.559Z" transform="translate(-6324.271 -2429.211)" fill="#419e47" fill-rule="evenodd"/>
    <path id="Trazado_3025" data-name="Trazado 3025" d="M6177.833,2523.534a18.91,18.91,0,0,1-2.282,1.53,3.885,3.885,0,0,1-1.792.573,1.618,1.618,0,0,1-1.171-.436,1.526,1.526,0,0,1-.448-1.138,1.18,1.18,0,0,1,.254-.719,3.555,3.555,0,0,1,.69-.683q.442-.333,1.623-1.162a.317.317,0,0,1,.242-.089c.064.012.1.064.1.162,0,.052,0,.109-.008.165s-.008.113-.016.178c0,.222.1.331.307.331.19,0,.444-.174.767-.517a5.83,5.83,0,0,0,.876-1.215,2.456,2.456,0,0,0,.392-1.078,1.015,1.015,0,0,0-.295-.747.985.985,0,0,0-.723-.294,3.424,3.424,0,0,0-1.626.646,13.4,13.4,0,0,0-2.241,1.824,8.012,8.012,0,0,0-1.368,1.623,2.665,2.665,0,0,0-.325.976l.184-.144v.812l-.2.2a4.933,4.933,0,0,0,.292,1.362,3.5,3.5,0,0,0,.852,1.348,1.69,1.69,0,0,0,1.19.513,2.8,2.8,0,0,0,1.357-.38,8.821,8.821,0,0,0,1.489-1.062q.734-.628,1.86-1.726-.007-.159-.007-.324c0-.168.009-.343.025-.524" transform="translate(-5962.439 -2433.37)" fill="#419e47" fill-rule="evenodd"/>
    <path id="Trazado_3026" data-name="Trazado 3026" d="M7215.392,2545.641a6.591,6.591,0,0,1-.67.472,1.16,1.16,0,0,1-.574.182c-.206,0-.4-.177-.6-.532a11.329,11.329,0,0,0,.957-1.425,7.523,7.523,0,0,0,.589-1.288,3.258,3.258,0,0,0,.2-1.01c0-.456-.174-.686-.521-.686-.219,0-.558.25-1.009.755a9.95,9.95,0,0,0-1.24,1.76,3.878,3.878,0,0,0-.573,1.772q-1.961,1.986-2.47,1.987c-.355,0-.534-.214-.534-.638a1.7,1.7,0,0,1,.049-.424l.21-.993a9.316,9.316,0,0,0,1.833-1.978,3.572,3.572,0,0,0,.8-1.732c0-.117-.109-.218-.319-.307a1.816,1.816,0,0,0-.674-.129,1.192,1.192,0,0,0-.738.242,5.44,5.44,0,0,0-.86.9,7.69,7.69,0,0,0-1.713,3.175l.239-.2v.864c-.094.121-.187.238-.28.352a4.1,4.1,0,0,0,.555,1.727,1.64,1.64,0,0,0,1.389.977,2.18,2.18,0,0,0,1.231-.634,25.1,25.1,0,0,0,1.961-1.914,2.3,2.3,0,0,0,.848.319,2.267,2.267,0,0,0,.989-.19,5.965,5.965,0,0,0,.931-.617c-.015-.156-.022-.316-.022-.481a2.424,2.424,0,0,1,.02-.311" transform="translate(-6964.154 -2455.553)" fill="#419e47" fill-rule="evenodd"/>
    <path id="Trazado_3027" data-name="Trazado 3027" d="M6384.924,2364.649c-.634.585-1.07.981-1.3,1.192a6.826,6.826,0,0,1-.722.573,1.178,1.178,0,0,1-.642.23,1.037,1.037,0,0,1-.9-.472,2.123,2.123,0,0,1-.327-1.232,5.592,5.592,0,0,1,.117-.944,24.378,24.378,0,0,0,3.73-4.889,8.731,8.731,0,0,0,1.337-4.042,2.442,2.442,0,0,0-.082-.751.322.322,0,0,0-.33-.218,1.207,1.207,0,0,0-.554.214,7.365,7.365,0,0,0-1.9,1.78,21.246,21.246,0,0,0-1.974,2.979,20.243,20.243,0,0,0-1.518,3.371,10.232,10.232,0,0,0-.544,2.342l.185-.142v.791l-.2.2a4.882,4.882,0,0,0,.474,2.082,1.46,1.46,0,0,0,1.316.916q1.483,0,3.813-3c-.009-.119-.014-.241-.014-.365a4.151,4.151,0,0,1,.043-.619m-2.082-5.764a7.709,7.709,0,0,1,1.626-2.309.7.7,0,0,1,.271-.129c.125,0,.19.089.19.271a3.056,3.056,0,0,1-.291,1.054,13.5,13.5,0,0,1-.8,1.571,16.585,16.585,0,0,1-1.086,1.643,11.767,11.767,0,0,1-1.19,1.373,13.759,13.759,0,0,1,1.28-3.472" transform="translate(-6163.917 -2274.619)" fill="#419e47" fill-rule="evenodd"/>
    <path id="Trazado_3028" data-name="Trazado 3028" d="M7051.227,2538.816a13.569,13.569,0,0,1-1.493,1.108,2.4,2.4,0,0,1-1.224.408,1.2,1.2,0,0,1-.828-.282.912.912,0,0,1-.319-.711,1.384,1.384,0,0,1,.315-.888,18.4,18.4,0,0,1,1.34-1.38,5.312,5.312,0,0,0,.832-1.151,2.83,2.83,0,0,0,.468-1.183c0-.371-.242-.557-.722-.557q-1.394,0-3.073,2.616c-.238.387-.4.67-.489.852a3.511,3.511,0,0,0-.226.694c-.024.113-.044.229-.059.347l.108-.088v.791l-.134.129a5.125,5.125,0,0,0,.465,1.926,1.53,1.53,0,0,0,1.445,1.017,3.017,3.017,0,0,0,1.688-.751,11.326,11.326,0,0,0,1.864-1.881c-.013-.137-.02-.275-.02-.416a3.193,3.193,0,0,1,.06-.6" transform="translate(-6807.85 -2448.621)" fill="#419e47" fill-rule="evenodd"/>
    <path id="Trazado_3029" data-name="Trazado 3029" d="M5003.566,2524.106l.044-.047v0q-.885.757-1.5,1.207a6.508,6.508,0,0,1-1.235.723,2.976,2.976,0,0,1-1.2.271,1.137,1.137,0,0,1-.9-.392,1.58,1.58,0,0,1-.343-1.086v-.295a17.514,17.514,0,0,0,2.81-1.4,6.506,6.506,0,0,0,1.7-1.469,2.463,2.463,0,0,0,.557-1.486.907.907,0,0,0-.327-.763,1.382,1.382,0,0,0-.88-.254,3.962,3.962,0,0,0-1.582.391,7.256,7.256,0,0,0-1.789,1.159,8.409,8.409,0,0,0-1.89,2.131,4.279,4.279,0,0,0-.484,1.281v.847l-.1.124h0a3.647,3.647,0,0,0,.614,2.236,1.981,1.981,0,0,0,1.667.816,3.994,3.994,0,0,0,2.377-.856,14.306,14.306,0,0,0,2.472-2.42c-.006-.135-.009-.279-.009-.43Zm-4.509-1.676a5.244,5.244,0,0,1,.88-1.029,5.807,5.807,0,0,1,.968-.711,1.675,1.675,0,0,1,.695-.27c.166,0,.246.089.246.27a1.877,1.877,0,0,1-.359.824,5.307,5.307,0,0,1-1.118,1.175,6.84,6.84,0,0,1-1.82,1.03,3.358,3.358,0,0,1,.508-1.288" transform="translate(-4827.757 -2434.063)" fill="#419e47" fill-rule="evenodd"/>
    <path id="Trazado_3030" data-name="Trazado 3030" d="M5212.768,2498.02a2.676,2.676,0,0,1-1.049.242,4.22,4.22,0,0,1-.675-.073,11.1,11.1,0,0,0,1.74-1.34,5.149,5.149,0,0,0,1.029-1.377,3.284,3.284,0,0,0,.355-1.494,4.348,4.348,0,0,0-.093-.937c-.064-.275-.154-.617-.267-1.025a3.678,3.678,0,0,1-.173-.832,1.325,1.325,0,0,1,.048-.4l-.073-.226a1.221,1.221,0,0,0-.533-.141q-.992,0-1.251,1.457-1.142,1.28-4.154,4.458v.721l-.036.042a4.957,4.957,0,0,0,.125.979,2.588,2.588,0,0,0,.694,1.086,2.872,2.872,0,0,0,2.06.945,4.012,4.012,0,0,0,2.054-.763,17.393,17.393,0,0,0,2.709-2.236v-.791c-.521.432-.973.783-1.364,1.058a6.856,6.856,0,0,1-1.147.65m-2.374-.291a6.475,6.475,0,0,0-.735-1.005,2.02,2.02,0,0,0-.969-.416q2.405-2.35,3.133-3.181l.214,1.728c.009.064.017.125.02.189s0,.133,0,.214a2.558,2.558,0,0,1-.432,1.566,2.848,2.848,0,0,1-1.235.9" transform="translate(-5031.82 -2406.334)" fill="#419e47" fill-rule="evenodd"/>
    <path id="Trazado_3031" data-name="Trazado 3031" d="M5659.884,2311.344a2.967,2.967,0,0,0-.48-1.8,1.558,1.558,0,0,0-1.329-.646,4.728,4.728,0,0,0-1.554.355,11.571,11.571,0,0,0-2.011.993,10.015,10.015,0,0,0-1.865,1.458,10.72,10.72,0,0,0-1.349,1.651,14.193,14.193,0,0,0-1,1.712,3.255,3.255,0,0,0-.368.957,1.724,1.724,0,0,0,.658,1.155c.436.424.774.634,1.021.634a2.617,2.617,0,0,0,1.325-.787c.6-.525.9-.848.9-.973s-.093-.141-.283-.048a2.4,2.4,0,0,1-.925.331.308.308,0,0,1-.21-.053.2.2,0,0,1-.061-.162,2.8,2.8,0,0,1,.65-1.562,9.593,9.593,0,0,1,1.631-1.7,12.185,12.185,0,0,1,1.893-1.32,3.334,3.334,0,0,1,1.414-.5c.44,0,.662.282.662.852a12.144,12.144,0,0,1-1.146,3.334q-.5,1.132-1.09,2.325c-.4.792-.735,1.434-1.014,1.922s-.638,1.11-1.09,1.865-.815,1.352-1.082,1.788a4.253,4.253,0,0,0-.558,1.066.4.4,0,0,0,.166.294l.735.533a.323.323,0,0,0,.234.093c.1,0,.2-.085.3-.246l.863-1.421c.008-.016.029-.048.061-.1s.056-.093.081-.133a.24.24,0,0,0,.036-.089.745.745,0,0,0-.048-.254c-.032-.093-.057-.177-.081-.254a44.725,44.725,0,0,0,3.714-6.814,12.9,12.9,0,0,0,1.207-4.449" transform="translate(-5459.179 -2230.945)" fill="#419e47" fill-rule="evenodd"/>
    <path id="Trazado_3032" data-name="Trazado 3032" d="M7455.464,2497.37a6.872,6.872,0,0,1-1.147.65,2.676,2.676,0,0,1-1.05.242,4.226,4.226,0,0,1-.674-.073,11.106,11.106,0,0,0,1.741-1.34,5.141,5.141,0,0,0,1.029-1.377,3.284,3.284,0,0,0,.355-1.494,4.381,4.381,0,0,0-.092-.937c-.064-.275-.154-.617-.267-1.025a3.622,3.622,0,0,1-.173-.832,1.262,1.262,0,0,1,.049-.4l-.074-.226a1.222,1.222,0,0,0-.533-.141c-.662,0-1.078.484-1.251,1.457q-1.138,1.276-4.134,4.437v0c-.347.259-.569.428-.674.5a2.536,2.536,0,0,1-.348.214.877.877,0,0,1-.4.1h-.178l-.213-.214a7.125,7.125,0,0,0,.727-1.619,5.035,5.035,0,0,0,.266-1.429,1.4,1.4,0,0,0-.166-.8.99.99,0,0,0-.614-.311.883.883,0,0,0,.271-.545.529.529,0,0,0-.319-.481,1.889,1.889,0,0,0-.876-.169,3.6,3.6,0,0,0-1.687.493,7.172,7.172,0,0,0-1.708,1.288,7.571,7.571,0,0,0-1.3,1.72,3.932,3.932,0,0,0-.48,1.369l.117-.093v.8l-.114.089a4,4,0,0,0,.3,1.21,3.02,3.02,0,0,0,.867,1.2,1.884,1.884,0,0,0,1.208.436c.779,0,1.684-.61,2.705-1.825a2.78,2.78,0,0,0,1.36-.186,6.317,6.317,0,0,0,1.2-.9,4.8,4.8,0,0,0,.122.929,2.6,2.6,0,0,0,.694,1.086,2.871,2.871,0,0,0,2.059.945,4.015,4.015,0,0,0,2.055-.763,17.484,17.484,0,0,0,2.709-2.236v-.791c-.521.432-.973.783-1.365,1.058m-9.564-2.394a4.071,4.071,0,0,0-.307,1.518,3.157,3.157,0,0,0,.2,1.066,3.754,3.754,0,0,1-1.7.872c-.727,0-1.09-.258-1.09-.779,0-.073.1-.549.294-1.429a2.643,2.643,0,0,1,.65-.985,8.4,8.4,0,0,1,1.183-.969c.468-.319,1.025-.678,1.679-1.07a12.833,12.833,0,0,0-.908,1.776m6.043,2.753a6.547,6.547,0,0,0-.734-1.005,2.027,2.027,0,0,0-.969-.416q2.4-2.35,3.132-3.181l.215,1.728c.007.064.016.125.02.189s0,.133,0,.214a2.561,2.561,0,0,1-.432,1.566,2.849,2.849,0,0,1-1.236.9" transform="translate(-7190.306 -2406.334)" fill="#419e47" fill-rule="evenodd"/>
    <path id="Trazado_3033" data-name="Trazado 3033" d="M2737.81,1115.4h0c-4.518,0-8.183-3.957-8.183-8.834s3.666-8.833,8.183-8.833,8.183,3.955,8.183,8.833-3.666,8.834-8.183,8.834m14.548-6.871v-3.926h-2.881a13.4,13.4,0,0,0-.65-2.636l2.49-1.553-1.818-3.4-2.487,1.551a12.419,12.419,0,0,0-1.79-1.93l1.438-2.686-3.15-1.963-1.438,2.69a10.891,10.891,0,0,0-2.443-.7v-3.111h-3.637v3.111a11.014,11.014,0,0,0-2.44.7l-1.438-2.69-3.151,1.963,1.435,2.686a12.421,12.421,0,0,0-1.786,1.93l-2.49-1.551-1.819,3.4,2.493,1.555a13.3,13.3,0,0,0-.65,2.636h-2.884v3.926h2.884a13.3,13.3,0,0,0,.65,2.636l-2.493,1.553,1.819,3.4,2.49-1.551a12.417,12.417,0,0,0,1.787,1.931l-1.435,2.686,3.151,1.963,1.438-2.69a11.053,11.053,0,0,0,2.44.7v3.111h3.637v-3.111a11.053,11.053,0,0,0,2.444-.7l1.438,2.69,3.15-1.963-1.438-2.686a12.337,12.337,0,0,0,1.79-1.932l2.487,1.551,1.818-3.4-2.49-1.553a13.424,13.424,0,0,0,.65-2.636Z" transform="translate(-2631.321 -1054.036)" fill="#004321"/>
    <path id="Trazado_3034" data-name="Trazado 3034" d="M2795.575,605.8h0a3.9,3.9,0,1,1,3.962-3.9,3.933,3.933,0,0,1-3.962,3.9m7.043-3.035v-1.734h-1.395a5.478,5.478,0,0,0-.315-1.164l1.206-.686-.881-1.5-1.2.685a5.733,5.733,0,0,0-.867-.853l.7-1.186-1.525-.867-.7,1.188a5.662,5.662,0,0,0-1.183-.31v-1.374h-1.761v1.374a5.722,5.722,0,0,0-1.181.31l-.7-1.188-1.526.867.695,1.186a5.742,5.742,0,0,0-.865.853l-1.205-.685-.881,1.5,1.207.687a5.448,5.448,0,0,0-.314,1.164h-1.4v1.734h1.4a5.453,5.453,0,0,0,.314,1.164l-1.207.686.881,1.5,1.205-.685a5.733,5.733,0,0,0,.865.853l-.695,1.186,1.526.867.7-1.188a5.747,5.747,0,0,0,1.181.31v1.374h1.76v-1.374a5.743,5.743,0,0,0,1.183-.31l.7,1.188,1.525-.867-.7-1.186a5.693,5.693,0,0,0,.867-.853l1.2.685.88-1.5-1.206-.686a5.483,5.483,0,0,0,.315-1.164Z" transform="translate(-2694.386 -574.877)" fill="#004321"/>
    <path id="Trazado_3035" data-name="Trazado 3035" d="M383.106,371.637c2.866,2.061,4.642,4.309,7.8,6.185,2.4,1.422,5.732,3.051,8.443,4.417,18.348,9.249,13.422,27.318-7.878,21.086-36.77-10.759-46.3-60.013-16.9-83.479,27.192-21.7,60.884-9.442,73.543,14.318,7.733,14.514,6.745,31.869,1.265,42.966-5.681,11.5-17.965,24.574-31.147,26.21l6.32-10.391c2.171-3.918,3.581-6.572,5.532-10.769,6.313-13.581,13.621-43.864-6.134-46.46-5.148-.676-2.217-.459-5.674-2.246-5.925-3.063-15.844,2.456-19.4,6.4l5.989,2.487c4.458,1.91,12.325,6.894,16.833-1.929-4.008-2.423-11.187-2.332-16.867-1.946,16.841-5.678,30.579,3.672,24.335,20.886-2.979,8.213-6.954,6.169-7.53,17.574-.207,4.088-2.28,15.171-4.511,18.967-.364-5.087,1.4-13.334-1.878-18.15-3.465-5.089-9.209-2.872-15.369-3.557-14.525-1.614-22.414-14.072-20.232-23.477,2.091,7.184,2.6,8.83,5.94,14.73,4.086-2.571,4.526-7.428,1.363-12.365l-8.028-9.515c-1.7,3.233-3.53,9.108-3.119,13.647.376,4.156,1.269,5.1,3.6,7.6,1.4,1.5,2.735,4.487,3.7,6.812m22.42-55.849c-2.879-2.559-4.244-2.374-8.681-.907,2.06,2.574,4.3,5.145,8.02,3.606a8.565,8.565,0,0,0,.661-2.7m-13.193,6.26c-2.583-3.249-5.1-2.486-9.889-1.011a11.41,11.41,0,0,0,5.669,4.511c2.788.753,4.121-1.207,4.22-3.5M419.4,326.48c1.257-3.024,1.673-5.757-1.541-9.036l-7.293-5.762c-1.59,2.623-1.23,8.34-.29,11.039,1.4,4.031,4.023,5.251,7.452,5.368-3.035-3.991-5.265-6-6.233-12.363.1.781,3.918,9.747,7.905,10.754m-11.416,3.286c.027-3.787-.638-5.08-3.747-6.583l-6.688-2.507c-.125-.19-.326-.1-.493-.137.868,6.8,3.231,12.745,9.994,10.982-2.2-1.11-6.048-3.932-7.3-7.467,1.379,2.422,5.418,5.966,8.239,5.712m-27.372-2.746c-1.831,2-5.5,7.045-.932,9.785l1.135-.013c2.926-1.754,1.9-3.252,3.14-5.069,2.548,4.783,6.465,8.553,12.263,5.646a20.9,20.9,0,0,0-9.215-6c4.382.372,7.148,2.1,10.043,4.639.685-3.442-2.48-5.8-4.809-6.429-2.939-.792-6.08-.214-9.793.427Zm47.731-3.736c-.459,3.733-1.176,5.813-.314,10.311,6.884-2.642,3.478-8.831,2.608-15.362-2.924,1.274-11.01,9.355-4.2,15.647.659-5.219-.668-5.91,1.907-10.6m-57.908,27.773c8.022-2.426,2.42-11.419.348-17.863-2.981,2.106-10.98,13.282-1.757,18.769-.986-4.369-1.68-8.8.053-12.01.413,4.506-.2,6.157,1.356,11.1m28.208-1.823c-.632-9.195-9.516-9.8-17.181-8.213.968,1.506,4.513,6.095,5.965,7.717,2.493,2.786,4.943,3.6,9.6,1.91-1.908-4.085-6.768-5.966-9.34-7.7,5.013.7,6.914,3.35,10.957,6.283m38.907-8.348c5.191-2.733,2.807-6.05,1.316-11.491-3.234,2.642-7,7.059-2.589,11.791.37-3.707-.335-3.687.85-6.973Zm-31,11.6c.078-.076,2.794-1,.413-5.023a12.3,12.3,0,0,0-1.782-2.054c-.212-.184-.826-.628-1.14-.832-.1-.065-.347-.02-.469-.232s-.33-.147-.494-.222c.141,3.172-2.2,8.06,2.751,8.457Zm-32.349,10.67c-.023-5.378-4.375-6.659-8.9-7.471,1.114,5.788,2.364,9.648,8.052,8.924-1.815-1.874-4.358-2.581-5.706-6.107.69,1.771,4.207,4.441,6.552,4.654M427,351.5c-1.735-5.363-6.447-4.179-11.493-2.63,3.978,5.063,6.54,6.361,10.917,4.439a10.59,10.59,0,0,0-6.963-3.745c3.212-.112,5.434,1.081,7.54,1.936M372.233,369.63c-2.014-5.581-6.9-4.917-12.434-3.078,2.92,3.408,6.486,7.557,11.466,4.418-1.794-2.077-4.055-2.519-6.5-3.638,3.552-.044,5.138,1.334,7.467,2.3m23.578-.035c5.377-2.25,2.739-6.048,1.579-11.381-3.045,2.18-6.613,7.248-4.089,10.165,1.173,1.356.132.241,1.527.915-.367-2.629-.446-3.656.539-5.657Zm-12.7,2.043c-.139-.068-.317-.181-.4-.228s-.3-.167-.4-.222c-4.8-2.493-9.043.073-12.038,4.029a57.468,57.468,0,0,0,6.6,2.091c3.445.432,5.026-.852,6.12-2.995-2.186-1.7-5.931-.78-8.914-.528,3.209-1.173,5.847-1.828,8.9-.978Zm30.185-16.305c-10.382-.635-8.4,15.582-.054,16.28,9.794.818,10.014-15.671.054-16.28" transform="translate(-345.171 -298.148)" fill="#004321" fill-rule="evenodd"/>
  </g>
</svg>
