<svg xmlns="http://www.w3.org/2000/svg" width="21.233" height="21.639" viewBox="0 0 21.233 21.639">
  <path id="shopping_cart_FILL1_wght400_GRAD0_opsz48" d="M8.942,25.639a1.95,1.95,0,1,1,1.381-3.331,1.95,1.95,0,0,1-1.381,3.331Zm10.833,0a1.942,1.942,0,1,1,1.381-.569A1.881,1.881,0,0,1,19.775,25.639ZM6.721,6.14H22.673a1.033,1.033,0,0,1,.948.569,1.077,1.077,0,0,1,0,1.137l-3.656,6.581a2.424,2.424,0,0,1-.772.826,1.859,1.859,0,0,1-1.043.311H9.944L8.427,18.381h13.3v1.625H8.671a1.818,1.818,0,0,1-1.639-.758,1.558,1.558,0,0,1,.014-1.706l1.733-3.2L4.662,5.625H2.55V4H5.719Z" transform="translate(-2.55 -4)" fill="#fff"/>
</svg>
