<svg xmlns="http://www.w3.org/2000/svg" xmlns:xlink="http://www.w3.org/1999/xlink" width="38.804" height="75.24" viewBox="0 0 38.804 75.24">
  <defs>
    <clipPath id="clip-path">
      <rect id="Rectángulo_1007" data-name="Rectángulo 1007" width="38.804" height="75.24" fill="#fff"/>
    </clipPath>
  </defs>
  <g id="Grupo_1209" data-name="Grupo 1209" transform="translate(0 0)">
    <g id="Grupo_1208" data-name="Grupo 1208" transform="translate(0 0)" clip-path="url(#clip-path)">
      <path id="Trazado_2500" data-name="Trazado 2500" d="M0,0V32.3a7.721,7.721,0,0,0,1.116,4.074,8.777,8.777,0,0,0,3.056,3.007l13.582,7.955-2.142,8.308a1.468,1.468,0,0,1-1.422,1.1H6.67A1.469,1.469,0,0,0,5.8,59.4l6.172,4.587a1.469,1.469,0,0,1,.526,1.618l-2.419,7.72a1.47,1.47,0,0,0,2.274,1.622l6.18-4.552a1.473,1.473,0,0,1,1.748,0l6.071,4.511a1.469,1.469,0,0,0,2.278-1.618L26.214,65.6a1.469,1.469,0,0,1,.526-1.618L32.912,59.4a1.469,1.469,0,0,0-.875-2.648H24.6a1.466,1.466,0,0,1-1.418-1.088l-2.231-8.322,13.679-7.955a8.777,8.777,0,0,0,3.056-3.007A7.721,7.721,0,0,0,38.8,32.3V0ZM16.88,39.774,7.567,34.633a4.091,4.091,0,0,1-1.31-1.067A2.061,2.061,0,0,1,5.821,32.3V5.821H16.88Zm16.1-7.47a2.061,2.061,0,0,1-.437,1.261,4.091,4.091,0,0,1-1.31,1.067L22.7,39.774V5.821H32.984Z" transform="translate(0 0.001)" fill="#fff"/>
    </g>
  </g>
</svg>
