<svg xmlns="http://www.w3.org/2000/svg" xmlns:xlink="http://www.w3.org/1999/xlink" width="48" height="56" viewBox="0 0 48 56">
  <defs>
    <clipPath id="clip-path">
      <rect id="Rectángulo_1006" data-name="Rectángulo 1006" width="48" height="56" transform="translate(0 -0.318)" fill="#044320"/>
    </clipPath>
  </defs>
  <g id="Grupo_1207" data-name="Grupo 1207" transform="translate(0 0.318)">
    <g id="Grupo_1206" data-name="Grupo 1206" clip-path="url(#clip-path)">
      <path id="Trazado_2499" data-name="Trazado 2499" d="M3.977,55.682a3.816,3.816,0,0,1-2.784-1.193A3.816,3.816,0,0,1,0,51.705V16.572a3.816,3.816,0,0,1,1.193-2.784,3.816,3.816,0,0,1,2.784-1.193h7.292a12.436,12.436,0,0,1,3.513-8.916A11.606,11.606,0,0,1,23.532,0a12.7,12.7,0,0,1,9.082,3.679,11.886,11.886,0,0,1,3.845,8.916H43.75a4.078,4.078,0,0,1,3.977,3.977V51.705a4.078,4.078,0,0,1-3.977,3.977Zm0-3.977H43.75V16.572H3.977ZM23.864,32.481a12.42,12.42,0,0,0,9.082-3.845,12.42,12.42,0,0,0,3.845-9.082H32.813a8.6,8.6,0,0,1-2.652,6.3,8.8,8.8,0,0,1-12.595,0,8.6,8.6,0,0,1-2.652-6.3H10.938a12.42,12.42,0,0,0,3.845,9.082,12.42,12.42,0,0,0,9.082,3.845M15.246,12.595H32.481a8.49,8.49,0,0,0-8.618-8.618,8.49,8.49,0,0,0-8.618,8.618M3.977,51.705v0Z" fill="#044320"/>
    </g>
  </g>
</svg>
