<svg xmlns="http://www.w3.org/2000/svg" width="16.766" height="21.639" viewBox="0 0 16.766 21.639">
  <path id="Trazado_7448" data-name="Trazado 7448" d="M21.819,1H7.757A1.356,1.356,0,0,0,6.4,2.352V21.287a1.354,1.354,0,0,0,1.352,1.352H21.819a1.354,1.354,0,0,0,1.352-1.352V2.352A1.356,1.356,0,0,0,21.819,1ZM13.51,2.542h2.556a.451.451,0,0,1,0,.9H13.51a.451.451,0,0,1,0-.9Zm.969,18.718a.62.62,0,1,1,.618-.618A.622.622,0,0,1,14.479,21.26Zm6.1-2.168H9V4.552H20.579Z" transform="translate(-6.405 -1)" fill="#b6cf44"/>
</svg>
