<svg xmlns="http://www.w3.org/2000/svg" xmlns:xlink="http://www.w3.org/1999/xlink" width="75" height="75" viewBox="0 0 75 75">
  <defs>
    <clipPath id="clip-path">
      <rect id="Rectángulo_1008" data-name="Rectángulo 1008" width="75" height="75" transform="translate(0 0.12)" fill="#044320"/>
    </clipPath>
  </defs>
  <g id="Grupo_1210" data-name="Grupo 1210" transform="translate(0 -0.12)" clip-path="url(#clip-path)">
    <path id="Trazado_2501" data-name="Trazado 2501" d="M37.56,63.852A25.365,25.365,0,0,0,56.2,56.2,25.365,25.365,0,0,0,63.852,37.56,25.365,25.365,0,0,0,56.2,18.921,25.365,25.365,0,0,0,37.56,11.268V37.56L19.625,56.34a23.315,23.315,0,0,0,8.169,5.587,25.517,25.517,0,0,0,9.766,1.925m0,11.268a36.343,36.343,0,0,1-14.554-2.958A37.842,37.842,0,0,1,2.958,52.114,36.343,36.343,0,0,1,0,37.56,36.57,36.57,0,0,1,2.958,22.912a37.533,37.533,0,0,1,8.075-11.925A38.517,38.517,0,0,1,23.005,2.958,36.343,36.343,0,0,1,37.56,0,36.57,36.57,0,0,1,52.208,2.958,37.5,37.5,0,0,1,72.162,22.912,36.57,36.57,0,0,1,75.12,37.56a36.343,36.343,0,0,1-2.958,14.554,38.517,38.517,0,0,1-8.028,11.972,37.534,37.534,0,0,1-11.925,8.075A36.57,36.57,0,0,1,37.56,75.12m0-5.634a30.72,30.72,0,0,0,22.63-9.343,30.846,30.846,0,0,0,9.3-22.583,30.8,30.8,0,0,0-9.3-22.63,30.8,30.8,0,0,0-22.63-9.3,30.846,30.846,0,0,0-22.583,9.3A30.72,30.72,0,0,0,5.634,37.56a30.765,30.765,0,0,0,9.343,22.583A30.765,30.765,0,0,0,37.56,69.486" fill="#044320"/>
  </g>
</svg>
