<svg xmlns="http://www.w3.org/2000/svg" width="236" height="95" viewBox="0 0 236 95">
  <g id="Grupo_105" data-name="Grupo 105" transform="translate(-373 -32)">
    <rect id="Rectángulo_150" data-name="Rectángulo 150" width="236" height="95" rx="16" transform="translate(373 32)" fill="#fff"/>
    <g id="Grupo_104" data-name="Grupo 104" transform="translate(386 163.45)">
      <path id="Trazado_1" data-name="Trazado 1" d="M0-117.474v15.36l0,.781S.019-59.971.019-59.971A11,11,0,0,0,10.823-49h45.4A10.821,10.821,0,0,0,67-59.8v-58.65H.694v.042l-.219,0c-.293,0-.3.217-.238.442l-.012-.012v.037l.03.03a2.363,2.363,0,0,0,.217.439Zm.937-.039H66.065V-59.8a9.881,9.881,0,0,1-9.842,9.863h-45.4A10.051,10.051,0,0,1,.955-59.971l-.019-41.36,0-.781Zm1.926,47.18a.333.333,0,0,0,.378.378H61.361a.335.335,0,0,0,.379-.378.335.335,0,0,0-.379-.378H3.244A.334.334,0,0,0,2.866-70.333ZM106.861-83.547l.264,3.932h-.264a4.948,4.948,0,0,0-1.509-2.542A3.679,3.679,0,0,0,103-82.932a3.83,3.83,0,0,0-2.081.584,3.864,3.864,0,0,0-1.463,1.863,8.3,8.3,0,0,0-.533,3.181,6.757,6.757,0,0,0,.5,2.721,3.77,3.77,0,0,0,1.514,1.765,4.354,4.354,0,0,0,2.307.614,4,4,0,0,0,1.987-.482,6.551,6.551,0,0,0,1.893-1.915l.264.171a6.07,6.07,0,0,1-2.03,2.26,5.137,5.137,0,0,1-2.755.716,5.214,5.214,0,0,1-4.452-2.132,6.1,6.1,0,0,1-1.177-3.735,6.636,6.636,0,0,1,.776-3.181,5.617,5.617,0,0,1,2.137-2.247,5.772,5.772,0,0,1,2.972-.8,5.448,5.448,0,0,1,2.474.614,1.341,1.341,0,0,0,.511.188.564.564,0,0,0,.4-.162,1.326,1.326,0,0,0,.315-.64Zm13.5.264H123.5l7.07,8.673v-6.669a2.3,2.3,0,0,0-.239-1.33,1.265,1.265,0,0,0-1-.358h-.4v-.316h4.026v.316h-.409a1.175,1.175,0,0,0-1.041.443,2.591,2.591,0,0,0-.188,1.245v9.748h-.307l-7.624-9.313v7.121a2.365,2.365,0,0,0,.23,1.33,1.28,1.28,0,0,0,1,.358h.409v.316H121v-.316h.4a1.184,1.184,0,0,0,1.049-.443,2.583,2.583,0,0,0,.188-1.245v-8.042a5.258,5.258,0,0,0-.763-.776,2.787,2.787,0,0,0-.763-.35,2.715,2.715,0,0,0-.75-.077ZM88.328-75.589H83.851l-.784,1.825a2.887,2.887,0,0,0-.29,1.006.585.585,0,0,0,.252.465,2.2,2.2,0,0,0,1.088.26v.316H80.474v-.316a1.965,1.965,0,0,0,.938-.333,5.23,5.23,0,0,0,.963-1.663l4.068-9.518h.3l4.026,9.62a4.378,4.378,0,0,0,.882,1.505,1.8,1.8,0,0,0,1.1.388v.316H88.192v-.316a1.709,1.709,0,0,0,.933-.23.593.593,0,0,0,.243-.478,3.535,3.535,0,0,0-.341-1.185Zm108.435,3.556v.316h-4.956v-.316h.41a1.234,1.234,0,0,0,1.04-.418,2.6,2.6,0,0,0,.2-1.313v-7.471a3.832,3.832,0,0,0-.111-1.16.77.77,0,0,0-.349-.367,1.617,1.617,0,0,0-.784-.2h-.41v-.316h4.956v.316h-.418a1.224,1.224,0,0,0-1.032.418,2.5,2.5,0,0,0-.213,1.313v7.471a3.83,3.83,0,0,0,.111,1.16.765.765,0,0,0,.358.367,1.569,1.569,0,0,0,.776.2Zm-21.646-3.556h-4.478l-.785,1.825a2.9,2.9,0,0,0-.29,1.006.585.585,0,0,0,.252.465,2.2,2.2,0,0,0,1.087.26v.316h-3.642v-.316a1.959,1.959,0,0,0,.938-.333,5.217,5.217,0,0,0,.964-1.663l4.068-9.518h.3l4.025,9.62a4.386,4.386,0,0,0,.883,1.505,1.8,1.8,0,0,0,1.1.388v.316H174.98v-.316a1.71,1.71,0,0,0,.934-.23.6.6,0,0,0,.243-.478,3.535,3.535,0,0,0-.341-1.185Zm-59.138,0H111.5l-.784,1.825a2.887,2.887,0,0,0-.29,1.006.585.585,0,0,0,.252.465,2.2,2.2,0,0,0,1.088.26v.316h-3.642v-.316a1.965,1.965,0,0,0,.938-.333,5.23,5.23,0,0,0,.963-1.663l4.068-9.518h.3l4.025,9.62a4.386,4.386,0,0,0,.883,1.505,1.8,1.8,0,0,0,1.1.388v.316h-4.563v-.316a1.709,1.709,0,0,0,.933-.23.593.593,0,0,0,.243-.478,3.535,3.535,0,0,0-.341-1.185Zm33.475-7.062v4.571H152a2.072,2.072,0,0,0,1.322-.3,1.921,1.921,0,0,0,.494-1.382h.316v4.025h-.316a4.376,4.376,0,0,0-.239-1.083,1.065,1.065,0,0,0-.5-.469A2.572,2.572,0,0,0,152-77.457h-2.542v3.812a3.524,3.524,0,0,0,.069.934.534.534,0,0,0,.239.264,1.452,1.452,0,0,0,.648.1h1.961a5.312,5.312,0,0,0,1.424-.136,2.123,2.123,0,0,0,.853-.537,6.56,6.56,0,0,0,1.083-1.595h.341l-1,2.9h-8.912v-.316h.409a1.624,1.624,0,0,0,.776-.2.716.716,0,0,0,.371-.409,4,4,0,0,0,.1-1.117v-7.514a2.481,2.481,0,0,0-.222-1.356,1.32,1.32,0,0,0-1.023-.341h-.409v-.316h8.912l.128,2.533h-.332a4.007,4.007,0,0,0-.4-1.254,1.366,1.366,0,0,0-.644-.52,3.866,3.866,0,0,0-1.2-.128Zm42.081,10.934h-3.087l-3.915-5.407q-.434.017-.708.017c-.074,0-.154,0-.239,0s-.174-.007-.264-.013v3.36a2.359,2.359,0,0,0,.239,1.356,1.214,1.214,0,0,0,.972.375h.452v.316h-4.955v-.316h.435a1.163,1.163,0,0,0,1.049-.478,2.69,2.69,0,0,0,.179-1.254v-7.471a2.359,2.359,0,0,0-.239-1.356,1.252,1.252,0,0,0-.989-.375h-.435v-.316h4.213a10.021,10.021,0,0,1,2.716.269,3.112,3.112,0,0,1,1.484.989,2.575,2.575,0,0,1,.61,1.718,2.7,2.7,0,0,1-.7,1.851,3.926,3.926,0,0,1-2.154,1.109l2.388,3.318A5.935,5.935,0,0,0,190-72.511a3.545,3.545,0,0,0,1.535.478Zm-25.057-3.2.281.06-.99,3.138h-8.955v-.316h.435a1.163,1.163,0,0,0,1.049-.478,2.749,2.749,0,0,0,.179-1.262v-7.462a2.384,2.384,0,0,0-.239-1.356,1.252,1.252,0,0,0-.989-.375h-.435v-.316h5.236v.316a3.192,3.192,0,0,0-1.292.171,1.043,1.043,0,0,0-.508.452,3.722,3.722,0,0,0-.137,1.3v7.266a2.365,2.365,0,0,0,.137.972.609.609,0,0,0,.315.264,5.542,5.542,0,0,0,1.33.085h.844a6.121,6.121,0,0,0,1.868-.2,2.432,2.432,0,0,0,.981-.7A5.713,5.713,0,0,0,166.477-74.916Zm38.695-.674h-4.477l-.785,1.825a2.9,2.9,0,0,0-.29,1.006.585.585,0,0,0,.252.465,2.2,2.2,0,0,0,1.088.26v.316h-3.642v-.316a1.965,1.965,0,0,0,.938-.333,5.23,5.23,0,0,0,.963-1.663l4.068-9.518h.3l4.025,9.62a4.386,4.386,0,0,0,.883,1.505,1.8,1.8,0,0,0,1.1.388v.316h-4.563v-.316a1.708,1.708,0,0,0,.933-.23.593.593,0,0,0,.243-.478,3.535,3.535,0,0,0-.341-1.185Zm-125.483.674.281.06-.989,3.138H70.026v-.316h.435a1.162,1.162,0,0,0,1.049-.478,2.749,2.749,0,0,0,.179-1.262v-7.462a2.39,2.39,0,0,0-.239-1.356,1.254,1.254,0,0,0-.99-.375h-.435v-.316h5.237v.316a3.2,3.2,0,0,0-1.292.171,1.046,1.046,0,0,0-.508.452,3.727,3.727,0,0,0-.136,1.3v7.266a2.367,2.367,0,0,0,.136.972.611.611,0,0,0,.316.264,5.534,5.534,0,0,0,1.33.085h.844a6.116,6.116,0,0,0,1.867-.2,2.432,2.432,0,0,0,.981-.7A5.7,5.7,0,0,0,79.689-74.916Zm53.808,3.2v-.316h.434a1.149,1.149,0,0,0,1.041-.469,2.676,2.676,0,0,0,.188-1.262v-7.471a2.39,2.39,0,0,0-.239-1.356,1.253,1.253,0,0,0-.99-.375H133.5v-.316H138.2a10.279,10.279,0,0,1,3.944.588,4.7,4.7,0,0,1,2.175,1.962,6.055,6.055,0,0,1,.823,3.173,5.786,5.786,0,0,1-1.467,4.034,6.452,6.452,0,0,1-5.015,1.808ZM22.806-84.923v-.347h4.5v.347h-.478a1.291,1.291,0,0,0-1.153.628,2.868,2.868,0,0,0-.2,1.35v5.155a9.11,9.11,0,0,1-.38,2.966,3.724,3.724,0,0,1-1.49,1.809,5.31,5.31,0,0,1-3.023.754,5.692,5.692,0,0,1-3.158-.722,3.909,3.909,0,0,1-1.528-1.94,10.769,10.769,0,0,1-.3-3.13V-83.02a2.489,2.489,0,0,0-.323-1.537,1.33,1.33,0,0,0-1.045-.366h-.478v-.347h5.492v.347h-.487a1.26,1.26,0,0,0-1.125.5A2.774,2.774,0,0,0,17.4-83.02v5.539a12.209,12.209,0,0,0,.136,1.7,3.611,3.611,0,0,0,.492,1.49,2.677,2.677,0,0,0,1.026.881,3.548,3.548,0,0,0,1.645.347,4.536,4.536,0,0,0,2.231-.544A2.913,2.913,0,0,0,24.272-75a8.061,8.061,0,0,0,.361-2.873V-83.02a2.624,2.624,0,0,0-.262-1.49,1.377,1.377,0,0,0-1.087-.412Zm40.757-.637.291,4.321h-.291A5.441,5.441,0,0,0,61.9-84.032a4.041,4.041,0,0,0-2.587-.853,4.209,4.209,0,0,0-2.287.642A4.246,4.246,0,0,0,55.423-82.2a9.121,9.121,0,0,0-.586,3.5,7.424,7.424,0,0,0,.553,2.99,4.143,4.143,0,0,0,1.664,1.94,4.785,4.785,0,0,0,2.535.675,4.4,4.4,0,0,0,2.184-.53,7.2,7.2,0,0,0,2.081-2.1l.29.187a6.674,6.674,0,0,1-2.23,2.484,5.648,5.648,0,0,1-3.027.787,5.73,5.73,0,0,1-4.893-2.343A6.7,6.7,0,0,1,52.7-78.718a7.29,7.29,0,0,1,.853-3.5,6.171,6.171,0,0,1,2.348-2.47,6.343,6.343,0,0,1,3.266-.876,5.987,5.987,0,0,1,2.718.675,1.472,1.472,0,0,0,.562.206.618.618,0,0,0,.44-.178,1.465,1.465,0,0,0,.347-.7Zm-24.506,0,.291,4.321h-.291A5.438,5.438,0,0,0,37.4-84.032a4.041,4.041,0,0,0-2.587-.853,4.209,4.209,0,0,0-2.287.642A4.247,4.247,0,0,0,30.916-82.2a9.122,9.122,0,0,0-.586,3.5,7.423,7.423,0,0,0,.553,2.99,4.143,4.143,0,0,0,1.664,1.94,4.784,4.784,0,0,0,2.535.675,4.4,4.4,0,0,0,2.184-.53,7.2,7.2,0,0,0,2.081-2.1l.291.187a6.673,6.673,0,0,1-2.231,2.484,5.646,5.646,0,0,1-3.027.787,5.73,5.73,0,0,1-4.892-2.343,6.7,6.7,0,0,1-1.293-4.105,7.29,7.29,0,0,1,.853-3.5,6.171,6.171,0,0,1,2.348-2.47,6.343,6.343,0,0,1,3.266-.876,5.987,5.987,0,0,1,2.718.675,1.474,1.474,0,0,0,.562.206.619.619,0,0,0,.44-.178,1.461,1.461,0,0,0,.347-.7ZM136.8-72.553a8.707,8.707,0,0,0,1.816.239A4.312,4.312,0,0,0,141.9-73.7a5.286,5.286,0,0,0,1.305-3.77,5.279,5.279,0,0,0-1.305-3.778,4.4,4.4,0,0,0-3.351-1.382,7.242,7.242,0,0,0-1.748.247ZM6.911-84.576v5H9.226a1.65,1.65,0,0,0,1.167-.351,2.325,2.325,0,0,0,.492-1.392h.347v4.3h-.347a2.512,2.512,0,0,0-.192-1.087,1.215,1.215,0,0,0-.506-.52,2.091,2.091,0,0,0-.961-.173H6.911v3.993a4.209,4.209,0,0,0,.122,1.275.839.839,0,0,0,.394.4,1.776,1.776,0,0,0,.862.225h.459v.347H3.294v-.347h.45a1.357,1.357,0,0,0,1.143-.459,2.854,2.854,0,0,0,.225-1.443v-8.21a4.209,4.209,0,0,0-.122-1.275.845.845,0,0,0-.384-.4,1.742,1.742,0,0,0-.862-.225h-.45v-.347H12.75l.122,2.793h-.328a3.842,3.842,0,0,0-.567-1.307,1.862,1.862,0,0,0-.8-.6,4.254,4.254,0,0,0-1.467-.187Zm37.392,0v5.024H47.1a2.277,2.277,0,0,0,1.453-.328,2.111,2.111,0,0,0,.544-1.518h.347v4.424h-.347a4.837,4.837,0,0,0-.262-1.19,1.173,1.173,0,0,0-.553-.515,2.823,2.823,0,0,0-1.181-.187H44.3v4.189a3.89,3.89,0,0,0,.075,1.026.59.59,0,0,0,.262.291,1.594,1.594,0,0,0,.712.108h2.156a5.841,5.841,0,0,0,1.565-.15,2.335,2.335,0,0,0,.937-.59,7.212,7.212,0,0,0,1.19-1.753h.375l-1.1,3.187H40.686v-.347h.45a1.782,1.782,0,0,0,.853-.216.789.789,0,0,0,.408-.45A4.412,4.412,0,0,0,42.5-74.8v-8.257a2.733,2.733,0,0,0-.244-1.49,1.452,1.452,0,0,0-1.125-.375h-.45v-.347H50.48l.141,2.784h-.366a4.392,4.392,0,0,0-.436-1.378,1.5,1.5,0,0,0-.708-.572,4.246,4.246,0,0,0-1.321-.141Zm160.629,8.355-1.962-4.674-2.012,4.674Zm-89.193,0-1.961-4.674-2.013,4.674Zm-27.65,0-1.961-4.674-2.013,4.674Zm86.788,0-1.962-4.674L170.9-76.221Zm8.444-1.441.477.008a3.757,3.757,0,0,0,2.495-.716,2.293,2.293,0,0,0,.84-1.825,2.383,2.383,0,0,0-.678-1.761,2.426,2.426,0,0,0-1.8-.678,7.528,7.528,0,0,0-1.339.162ZM22.938-87.624c.129-.214-.024-.252-.308-.343a8.7,8.7,0,0,0-2.186-.256,8.7,8.7,0,0,0-2.9.354.166.166,0,0,0-.019.273c.092.068.2-.01.29-.046a9.6,9.6,0,0,1,3.05-.264,8.587,8.587,0,0,1,1.378.166c.105.024.272.076.42.117C22.776-87.59,22.877-87.523,22.938-87.624ZM17.167-88.6l.2.434c.073.163.027.147.193.1.124-.034.313-.085.483-.115a13.892,13.892,0,0,1,2.177-.171c.549,0,1.078.049,1.493.09a5.429,5.429,0,0,1,1.218.22c.125.03.105.052.144-.048l.2-.528c.051-.131.076-.121-.068-.171a8.37,8.37,0,0,0-1.308-.247,10.828,10.828,0,0,0-1.676-.114,10.162,10.162,0,0,0-2.941.346l-.092.032C17.067-88.727,17.111-88.726,17.167-88.6Zm.5-.143a.265.265,0,0,1,.271.258.273.273,0,0,1-.463.181A.256.256,0,0,1,17.665-88.743Zm5.125-.008a.263.263,0,0,1,.269.258.272.272,0,0,1-.461.181A.255.255,0,0,1,22.791-88.751Zm-3.934-.183a.264.264,0,0,1,.271.256.273.273,0,0,1-.463.181A.255.255,0,0,1,18.856-88.934Zm2.78,0a.264.264,0,0,1,.271.256.273.273,0,0,1-.462.181A.255.255,0,0,1,21.637-88.936Zm-1.445-.044a.264.264,0,0,1,.271.255.273.273,0,0,1-.462.181A.255.255,0,0,1,20.192-88.98Zm168.4-5.068V-94.2h1.958v.151h-.208a.561.561,0,0,0-.5.273,1.243,1.243,0,0,0-.086.587v2.243a3.962,3.962,0,0,1-.165,1.291,1.623,1.623,0,0,1-.648.787,2.313,2.313,0,0,1-1.316.328,2.475,2.475,0,0,1-1.374-.314,1.7,1.7,0,0,1-.665-.844,4.673,4.673,0,0,1-.131-1.362V-93.22a1.083,1.083,0,0,0-.141-.669.578.578,0,0,0-.455-.159h-.208V-94.2h2.39v.151h-.212a.548.548,0,0,0-.49.216,1.207,1.207,0,0,0-.1.612v2.411a5.246,5.246,0,0,0,.059.738,1.572,1.572,0,0,0,.214.649,1.162,1.162,0,0,0,.447.383,1.542,1.542,0,0,0,.716.151,1.974,1.974,0,0,0,.97-.237,1.27,1.27,0,0,0,.586-.606,3.519,3.519,0,0,0,.157-1.25V-93.22a1.147,1.147,0,0,0-.114-.649.6.6,0,0,0-.473-.179Zm-108.213,0H80.2a.561.561,0,0,0-.5.273,1.241,1.241,0,0,0-.086.587v2.243a3.963,3.963,0,0,1-.165,1.291,1.623,1.623,0,0,1-.648.787,2.313,2.313,0,0,1-1.316.328,2.475,2.475,0,0,1-1.374-.314,1.7,1.7,0,0,1-.665-.844,4.672,4.672,0,0,1-.131-1.362V-93.22a1.083,1.083,0,0,0-.141-.669.579.579,0,0,0-.455-.159h-.208V-94.2H76.9v.151h-.212a.548.548,0,0,0-.489.216,1.207,1.207,0,0,0-.1.612v2.411a5.249,5.249,0,0,0,.059.738,1.572,1.572,0,0,0,.214.649,1.162,1.162,0,0,0,.447.383,1.542,1.542,0,0,0,.716.151,1.974,1.974,0,0,0,.97-.237,1.27,1.27,0,0,0,.586-.606,3.519,3.519,0,0,0,.157-1.25V-93.22a1.147,1.147,0,0,0-.114-.649.6.6,0,0,0-.473-.179h-.208V-94.2h3.435l3.381,4.148v-3.19a1.1,1.1,0,0,0-.114-.636.605.605,0,0,0-.477-.171h-.192V-94.2H86.4v.151h-.2a.562.562,0,0,0-.5.212,1.238,1.238,0,0,0-.09.6v4.662h-.147l-3.647-4.454v3.406a1.133,1.133,0,0,0,.11.636.613.613,0,0,0,.477.171h.2v.151H80.685v-.151h.192a.567.567,0,0,0,.5-.212,1.238,1.238,0,0,0,.09-.6v-3.846a2.514,2.514,0,0,0-.365-.371,1.339,1.339,0,0,0-.365-.167A1.3,1.3,0,0,0,80.38-94.048Zm45.719-.277.127,1.88H126.1a2.365,2.365,0,0,0-.722-1.215,1.758,1.758,0,0,0-1.126-.371,1.834,1.834,0,0,0-1,.279,1.85,1.85,0,0,0-.7.891,3.969,3.969,0,0,0-.254,1.521,3.227,3.227,0,0,0,.24,1.3,1.8,1.8,0,0,0,.724.844,2.082,2.082,0,0,0,1.1.294,1.915,1.915,0,0,0,.95-.23,3.133,3.133,0,0,0,.905-.916l.127.082a2.9,2.9,0,0,1-.971,1.081,2.458,2.458,0,0,1-1.317.343,2.494,2.494,0,0,1-2.13-1.02,2.916,2.916,0,0,1-.563-1.787,3.173,3.173,0,0,1,.371-1.521,2.689,2.689,0,0,1,1.022-1.075,2.761,2.761,0,0,1,1.422-.381,2.605,2.605,0,0,1,1.183.294.644.644,0,0,0,.245.09.268.268,0,0,0,.192-.077.634.634,0,0,0,.151-.306Zm52.6,0v1.913h-.151a2.385,2.385,0,0,0-.263-.877,1.37,1.37,0,0,0-.541-.518,1.494,1.494,0,0,0-.726-.192.989.989,0,0,0-.7.259.789.789,0,0,0-.277.589.7.7,0,0,0,.176.461,4.5,4.5,0,0,0,1.2.816,8.313,8.313,0,0,1,1.058.638,1.553,1.553,0,0,1,.436.524,1.38,1.38,0,0,1,.153.632A1.432,1.432,0,0,1,178.576-89a1.765,1.765,0,0,1-1.254.455,2.649,2.649,0,0,1-.453-.037,4.608,4.608,0,0,1-.524-.149,2.36,2.36,0,0,0-.5-.128.214.214,0,0,0-.161.061.486.486,0,0,0-.088.253h-.151v-1.9h.151a2.686,2.686,0,0,0,.286.891,1.37,1.37,0,0,0,.549.492,1.7,1.7,0,0,0,.81.2,1.153,1.153,0,0,0,.806-.269.834.834,0,0,0,.3-.636.866.866,0,0,0-.112-.412,1.231,1.231,0,0,0-.349-.387,10.022,10.022,0,0,0-.869-.52,8.437,8.437,0,0,1-1.01-.634,1.706,1.706,0,0,1-.454-.522,1.29,1.29,0,0,1-.155-.628,1.362,1.362,0,0,1,.457-1.026,1.629,1.629,0,0,1,1.163-.43,2.331,2.331,0,0,1,.934.216.96.96,0,0,0,.322.1.242.242,0,0,0,.173-.063.505.505,0,0,0,.108-.255Zm23.8,0a2.508,2.508,0,0,1,1.866.818,2.824,2.824,0,0,1,.789,2.041,2.906,2.906,0,0,1-.8,2.092,2.564,2.564,0,0,1-1.925.832,2.55,2.55,0,0,1-1.919-.812,2.911,2.911,0,0,1-.777-2.1,2.8,2.8,0,0,1,.9-2.149A2.648,2.648,0,0,1,202.5-94.325Zm-51.01,0a2.508,2.508,0,0,1,1.866.818,2.822,2.822,0,0,1,.789,2.041,2.908,2.908,0,0,1-.8,2.092,2.566,2.566,0,0,1-1.925.832,2.552,2.552,0,0,1-1.919-.812,2.913,2.913,0,0,1-.777-2.1,2.8,2.8,0,0,1,.9-2.149A2.648,2.648,0,0,1,151.49-94.325Zm57.814,0v1.913h-.151a2.384,2.384,0,0,0-.263-.877,1.366,1.366,0,0,0-.541-.518,1.492,1.492,0,0,0-.726-.192.987.987,0,0,0-.7.259.787.787,0,0,0-.277.589.7.7,0,0,0,.175.461,4.5,4.5,0,0,0,1.2.816,8.312,8.312,0,0,1,1.058.638,1.555,1.555,0,0,1,.437.524,1.387,1.387,0,0,1,.152.632A1.432,1.432,0,0,1,209.184-89a1.765,1.765,0,0,1-1.254.455,2.649,2.649,0,0,1-.453-.037,4.608,4.608,0,0,1-.524-.149,2.352,2.352,0,0,0-.5-.128.214.214,0,0,0-.161.061.491.491,0,0,0-.088.253h-.151v-1.9h.151a2.687,2.687,0,0,0,.286.891,1.37,1.37,0,0,0,.549.492,1.7,1.7,0,0,0,.81.2,1.151,1.151,0,0,0,.806-.269.834.834,0,0,0,.3-.636.866.866,0,0,0-.112-.412,1.232,1.232,0,0,0-.349-.387,10.026,10.026,0,0,0-.869-.52,8.441,8.441,0,0,1-1.01-.634,1.714,1.714,0,0,1-.454-.522,1.3,1.3,0,0,1-.155-.628,1.361,1.361,0,0,1,.457-1.026,1.627,1.627,0,0,1,1.162-.43,2.332,2.332,0,0,1,.934.216.96.96,0,0,0,.322.1.244.244,0,0,0,.174-.063.506.506,0,0,0,.108-.255Zm-105.7,0,.127,1.88h-.127a2.365,2.365,0,0,0-.722-1.215,1.76,1.76,0,0,0-1.126-.371,1.834,1.834,0,0,0-1,.279,1.85,1.85,0,0,0-.7.891,3.968,3.968,0,0,0-.255,1.521,3.227,3.227,0,0,0,.241,1.3,1.8,1.8,0,0,0,.724.844,2.08,2.08,0,0,0,1.1.294,1.912,1.912,0,0,0,.95-.23,3.127,3.127,0,0,0,.906-.916l.126.082a2.907,2.907,0,0,1-.97,1.081,2.458,2.458,0,0,1-1.317.343,2.494,2.494,0,0,1-2.13-1.02,2.916,2.916,0,0,1-.563-1.787,3.173,3.173,0,0,1,.371-1.521,2.685,2.685,0,0,1,1.022-1.075,2.761,2.761,0,0,1,1.421-.381,2.606,2.606,0,0,1,1.183.294.644.644,0,0,0,.244.09.27.27,0,0,0,.192-.077.634.634,0,0,0,.151-.306Zm6.373,0a2.51,2.51,0,0,1,1.866.818,2.824,2.824,0,0,1,.789,2.041,2.906,2.906,0,0,1-.8,2.092,2.565,2.565,0,0,1-1.925.832A2.55,2.55,0,0,1,108-89.353a2.912,2.912,0,0,1-.777-2.1,2.8,2.8,0,0,1,.9-2.149A2.647,2.647,0,0,1,109.98-94.325Zm2.864.126h1.5l3.381,4.148v-3.19a1.1,1.1,0,0,0-.114-.636.6.6,0,0,0-.477-.171h-.191V-94.2h1.925v.151h-.2a.562.562,0,0,0-.5.212,1.238,1.238,0,0,0-.09.6v4.662h-.147l-3.646-4.454v3.406a1.134,1.134,0,0,0,.11.636.613.613,0,0,0,.477.171h.2v.151H113.15v-.151h.192a.566.566,0,0,0,.5-.212,1.238,1.238,0,0,0,.09-.6v-3.846a2.519,2.519,0,0,0-.365-.371,1.344,1.344,0,0,0-.365-.167,1.3,1.3,0,0,0-.359-.037Zm18.784,0h1.5l3.381,4.148v-3.19a1.1,1.1,0,0,0-.114-.636.605.605,0,0,0-.477-.171h-.192V-94.2h1.925v.151h-.2a.562.562,0,0,0-.5.212,1.238,1.238,0,0,0-.09.6v4.662h-.147l-3.646-4.454v3.406a1.127,1.127,0,0,0,.11.636.612.612,0,0,0,.477.171h.2v.151h-1.925v-.151h.192a.567.567,0,0,0,.5-.212,1.238,1.238,0,0,0,.09-.6v-3.846a2.513,2.513,0,0,0-.365-.371,1.336,1.336,0,0,0-.365-.167,1.3,1.3,0,0,0-.359-.037Zm59.152,5.531v-.151h.208a.548.548,0,0,0,.5-.224,1.277,1.277,0,0,0,.09-.6V-93.22a1.141,1.141,0,0,0-.114-.649.6.6,0,0,0-.473-.179h-.208V-94.2h2.251a4.92,4.92,0,0,1,1.887.281,2.246,2.246,0,0,1,1.04.938,2.9,2.9,0,0,1,.393,1.517,2.767,2.767,0,0,1-.7,1.929,3.085,3.085,0,0,1-2.4.865ZM164.326-93.9v2.186h1.216a.99.99,0,0,0,.632-.143.917.917,0,0,0,.236-.661h.151v1.925h-.151a2.141,2.141,0,0,0-.114-.518.513.513,0,0,0-.241-.224,1.228,1.228,0,0,0-.514-.082h-1.216v1.823a1.692,1.692,0,0,0,.033.447.256.256,0,0,0,.114.126.694.694,0,0,0,.31.047h.938a2.538,2.538,0,0,0,.681-.065,1.014,1.014,0,0,0,.408-.257,3.139,3.139,0,0,0,.518-.763h.163l-.477,1.387h-4.262v-.151h.2a.774.774,0,0,0,.371-.094.344.344,0,0,0,.178-.2,1.927,1.927,0,0,0,.047-.534v-3.593a1.193,1.193,0,0,0-.106-.649.632.632,0,0,0-.49-.163h-.2V-94.2h4.262l.061,1.211h-.159a1.893,1.893,0,0,0-.19-.6.65.65,0,0,0-.308-.249,1.847,1.847,0,0,0-.575-.061Zm20.016-.3.061,1.3h-.155a1.567,1.567,0,0,0-.123-.489.819.819,0,0,0-.337-.349,1.174,1.174,0,0,0-.553-.112h-.779v4.226a1.134,1.134,0,0,0,.11.636.613.613,0,0,0,.477.171h.192v.151h-2.345v-.151h.2a.562.562,0,0,0,.5-.212,1.238,1.238,0,0,0,.09-.6v-4.226h-.665a1.852,1.852,0,0,0-.551.057.755.755,0,0,0-.363.3,1.2,1.2,0,0,0-.179.6h-.155l.066-1.3Zm-41.742,0,.061,1.3h-.155a1.551,1.551,0,0,0-.123-.489.816.816,0,0,0-.337-.349,1.172,1.172,0,0,0-.552-.112h-.779v4.226a1.132,1.132,0,0,0,.11.636.613.613,0,0,0,.477.171h.192v.151H139.15v-.151h.2a.561.561,0,0,0,.5-.212,1.238,1.238,0,0,0,.09-.6v-4.226h-.665a1.857,1.857,0,0,0-.551.057.757.757,0,0,0-.363.3,1.213,1.213,0,0,0-.179.6h-.155l.065-1.3Zm28.912.3v2.186h1.215a.992.992,0,0,0,.633-.143.92.92,0,0,0,.236-.661h.151v1.925H173.6a2.1,2.1,0,0,0-.114-.518.509.509,0,0,0-.24-.224,1.231,1.231,0,0,0-.514-.082h-1.215v1.823a1.692,1.692,0,0,0,.033.447.256.256,0,0,0,.114.126.692.692,0,0,0,.31.047h.938a2.541,2.541,0,0,0,.681-.065,1.019,1.019,0,0,0,.408-.257,3.141,3.141,0,0,0,.518-.763h.164l-.477,1.387h-4.263v-.151h.2a.777.777,0,0,0,.371-.094.343.343,0,0,0,.177-.2,1.9,1.9,0,0,0,.047-.534v-3.593a1.2,1.2,0,0,0-.106-.649.633.633,0,0,0-.49-.163h-.2V-94.2H174.2l.061,1.211H174.1a1.922,1.922,0,0,0-.19-.6.65.65,0,0,0-.308-.249,1.852,1.852,0,0,0-.575-.061ZM96.371-90.52H94.229l-.375.873a1.389,1.389,0,0,0-.138.481.279.279,0,0,0,.12.222,1.051,1.051,0,0,0,.52.124v.151H92.613v-.151a.939.939,0,0,0,.449-.159,2.51,2.51,0,0,0,.461-.8l1.945-4.552h.143l1.925,4.6a2.111,2.111,0,0,0,.422.72.861.861,0,0,0,.528.186v.151H96.3v-.151a.818.818,0,0,0,.447-.11.284.284,0,0,0,.116-.228,1.683,1.683,0,0,0-.163-.567ZM71.527-93.9v2.174h1.007a.718.718,0,0,0,.508-.153,1.015,1.015,0,0,0,.215-.606h.151v1.872h-.151a1.1,1.1,0,0,0-.084-.473.531.531,0,0,0-.22-.226.909.909,0,0,0-.418-.075H71.527v1.738a1.84,1.84,0,0,0,.053.555.368.368,0,0,0,.171.175.776.776,0,0,0,.376.1h.2v.151H69.953v-.151h.2a.59.59,0,0,0,.5-.2,1.237,1.237,0,0,0,.1-.628V-93.22a1.84,1.84,0,0,0-.053-.555.371.371,0,0,0-.167-.175.76.76,0,0,0-.376-.1h-.2V-94.2h4.115l.053,1.215h-.142a1.676,1.676,0,0,0-.247-.569.811.811,0,0,0-.347-.263,1.854,1.854,0,0,0-.639-.082Zm127.717,5.078v.151h-2.369v-.151h.2a.59.59,0,0,0,.5-.2,1.237,1.237,0,0,0,.1-.628V-93.22a1.839,1.839,0,0,0-.053-.555.371.371,0,0,0-.167-.175.776.776,0,0,0-.375-.1h-.2V-94.2h2.369v.151h-.2a.586.586,0,0,0-.494.2,1.2,1.2,0,0,0-.1.628v3.573a1.84,1.84,0,0,0,.053.555.367.367,0,0,0,.172.175.749.749,0,0,0,.371.1Zm-50.732.151h-1.477l-1.872-2.586c-.138.005-.252.008-.338.008l-.241-.008v1.607A1.128,1.128,0,0,0,144.7-89a.581.581,0,0,0,.465.179h.216v.151h-2.37v-.151h.208a.557.557,0,0,0,.5-.228,1.291,1.291,0,0,0,.086-.6V-93.22a1.128,1.128,0,0,0-.114-.649.6.6,0,0,0-.473-.179h-.208V-94.2h2.015a4.786,4.786,0,0,1,1.3.128,1.487,1.487,0,0,1,.71.473,1.23,1.23,0,0,1,.291.822,1.291,1.291,0,0,1-.332.885,1.877,1.877,0,0,1-1.03.53l1.142,1.587a2.836,2.836,0,0,0,.673.726,1.694,1.694,0,0,0,.734.228Zm-61.85,0v-.151h.208a.55.55,0,0,0,.5-.224,1.279,1.279,0,0,0,.09-.6V-93.22a1.14,1.14,0,0,0-.114-.649.6.6,0,0,0-.473-.179h-.208V-94.2h2.251a4.918,4.918,0,0,1,1.887.281,2.246,2.246,0,0,1,1.04.938,2.9,2.9,0,0,1,.393,1.517,2.769,2.769,0,0,1-.7,1.929,3.087,3.087,0,0,1-2.4.865Zm20.062-.151v.151h-2.37v-.151h.2a.59.59,0,0,0,.5-.2,1.244,1.244,0,0,0,.1-.628V-93.22a1.839,1.839,0,0,0-.053-.555.37.37,0,0,0-.168-.175.772.772,0,0,0-.375-.1h-.2V-94.2h2.37v.151h-.2a.585.585,0,0,0-.493.2,1.2,1.2,0,0,0-.1.628v3.573a1.84,1.84,0,0,0,.053.555.368.368,0,0,0,.171.175.752.752,0,0,0,.371.1Zm21.66-5.078v2.186H129.6a.992.992,0,0,0,.633-.143.92.92,0,0,0,.236-.661h.151v1.925h-.151a2.1,2.1,0,0,0-.114-.518.509.509,0,0,0-.24-.224,1.229,1.229,0,0,0-.514-.082h-1.215v1.823a1.691,1.691,0,0,0,.033.447.256.256,0,0,0,.114.126.693.693,0,0,0,.31.047h.939a2.538,2.538,0,0,0,.681-.065,1.019,1.019,0,0,0,.408-.257,3.124,3.124,0,0,0,.518-.763h.164l-.477,1.387H126.81v-.151h.2a.774.774,0,0,0,.371-.094.346.346,0,0,0,.178-.2,1.927,1.927,0,0,0,.047-.534v-3.593a1.193,1.193,0,0,0-.106-.649.632.632,0,0,0-.49-.163h-.2V-94.2h4.263l.061,1.211h-.159a1.907,1.907,0,0,0-.19-.6.65.65,0,0,0-.308-.249,1.847,1.847,0,0,0-.575-.061Zm28.31,5.229v-.151h.208a.55.55,0,0,0,.5-.224,1.279,1.279,0,0,0,.09-.6V-93.22a1.141,1.141,0,0,0-.114-.649.6.6,0,0,0-.473-.179h-.208V-94.2h2.251a4.918,4.918,0,0,1,1.887.281,2.246,2.246,0,0,1,1.04.938,2.9,2.9,0,0,1,.393,1.517,2.767,2.767,0,0,1-.7,1.929,3.085,3.085,0,0,1-2.4.865Zm-5.282-5.36a1.459,1.459,0,0,0-1.191.551,3.115,3.115,0,0,0-.559,2.007,3.283,3.283,0,0,0,.579,2.084,1.43,1.43,0,0,0,1.174.555,1.6,1.6,0,0,0,1.287-.608,2.966,2.966,0,0,0,.508-1.917,3.349,3.349,0,0,0-.559-2.117A1.507,1.507,0,0,0,151.412-94.028Zm-41.51,0a1.459,1.459,0,0,0-1.191.551,3.111,3.111,0,0,0-.559,2.007,3.287,3.287,0,0,0,.579,2.084,1.432,1.432,0,0,0,1.175.555,1.606,1.606,0,0,0,1.287-.608,2.965,2.965,0,0,0,.508-1.917,3.349,3.349,0,0,0-.559-2.117A1.507,1.507,0,0,0,109.9-94.028Zm92.52,0a1.459,1.459,0,0,0-1.191.551,3.111,3.111,0,0,0-.559,2.007,3.287,3.287,0,0,0,.579,2.084,1.432,1.432,0,0,0,1.175.555,1.606,1.606,0,0,0,1.287-.608,2.965,2.965,0,0,0,.508-1.917,3.35,3.35,0,0,0-.559-2.117A1.507,1.507,0,0,0,202.422-94.028Zm-44.15,4.96a4.165,4.165,0,0,0,.869.114,2.064,2.064,0,0,0,1.571-.665,2.53,2.53,0,0,0,.624-1.8,2.527,2.527,0,0,0-.624-1.807,2.107,2.107,0,0,0-1.6-.661,3.467,3.467,0,0,0-.837.118Zm-70.032,0a4.165,4.165,0,0,0,.869.114,2.064,2.064,0,0,0,1.571-.665,2.53,2.53,0,0,0,.624-1.8,2.527,2.527,0,0,0-.624-1.807,2.107,2.107,0,0,0-1.6-.661,3.467,3.467,0,0,0-.837.118Zm104.118,0a4.165,4.165,0,0,0,.869.114,2.062,2.062,0,0,0,1.57-.665,2.527,2.527,0,0,0,.624-1.8,2.524,2.524,0,0,0-.624-1.807,2.106,2.106,0,0,0-1.6-.661,3.467,3.467,0,0,0-.836.118ZM19.929-93.99a1.275,1.275,0,0,0-.31-.236.83.83,0,0,0-.485-.08,1.258,1.258,0,0,1,.36.144.747.747,0,0,1,.335.7c.01.195.108.232.2.327l-.047.122a1.941,1.941,0,0,0-1.591.332c-.071.069-.063.09-.131.159a2.2,2.2,0,0,0-1.056.241,1,1,0,0,0-.5.8,4.057,4.057,0,0,0,.636,1.948,1.6,1.6,0,0,0-.426.156.233.233,0,0,0,.029.39c.141.078.315-.034.471-.071a16.243,16.243,0,0,1,3.979-.209,13.248,13.248,0,0,1,1.594.219c.237.049.378.127.5.069a.247.247,0,0,0,.055-.391c-.108-.092-.314-.083-.449-.149.065-.208,1.334-2.028.158-2.748a2.1,2.1,0,0,0-1.069-.249,1.865,1.865,0,0,1-.117-.152A1.973,1.973,0,0,0,20.454-93a.627.627,0,0,0-.044-.125c.356-.3.088-.393.285-.756.181-.334.4-.339.612-.42a.8.8,0,0,0-.484.08c-.227.112-.213.186-.317.236a6.7,6.7,0,0,0-.295-.971Zm-5.673,3.463.226.559.649-.023-.51.366.229.559-.542-.332-.508.369.176-.573-.542-.331.649-.022Zm11.876-.059-.259.547-.648-.052.49.39-.261.547.559-.308.486.392-.142-.58.561-.3-.647-.051Zm-4.368.863.823.095a4.979,4.979,0,0,0,.637-1.359c.173-.708-.178-1.028-.862-1.044a3.033,3.033,0,0,1-.164,1.276A7.1,7.1,0,0,1,21.764-89.724Zm-3.913.093.824-.09a4.383,4.383,0,0,1-.595-2.312c-.668.061-1.051.29-.871,1.03A5.04,5.04,0,0,0,17.851-89.63Zm1.337-.119.795-.027,0-2.744a1.884,1.884,0,0,0-1.076.059c-.964.473.234,2.516.283,2.711Zm1.281-2.777c-.029.1-.017,2.455-.012,2.748l.795.023.38-.835a3.906,3.906,0,0,0,.261-.976C21.974-92.567,21.354-92.626,20.47-92.526Zm75.787,1.7-.938-2.235-.963,2.235ZM14.283-92.868l.079.589.639.1-.589.259.081.588-.444-.429-.59.263.317-.525-.445-.427.639.105Zm11.956,0-.112.584-.646.073.574.285-.115.585.468-.408.574.286L26.7-92l.471-.405-.645.075Zm118.345,1.354.229,0a1.8,1.8,0,0,0,1.193-.343,1.1,1.1,0,0,0,.4-.873,1.139,1.139,0,0,0-.324-.842,1.161,1.161,0,0,0-.858-.324,3.6,3.6,0,0,0-.641.078ZM25.453-94.841l.039.591-.612.2.633.166.034.593.354-.49.632.17-.415-.469.356-.486-.608.2Zm-10.261-.085-.073.589.6.224-.641.137-.069.589-.325-.5-.641.139.441-.449-.327-.5.6.226ZM110.828-96l-1.2,1.407h-.139L109.914-96Zm-87.72.32.671.071.115.561.3-.517.671.073-.488-.39.3-.515-.6.275-.484-.392.117.561Zm-5.526.022-.674.041-.149.554-.266-.529-.674.043.51-.368-.269-.528.581.3.508-.37L17-95.956Zm1.039-.312.161-.576-.559-.291.658-.062.157-.575.245.537L19.939-97l-.5.393.247.537-.557-.295Zm3.467-.007-.127-.583.574-.266-.652-.092-.124-.581-.276.525-.652-.093.483.415-.278.525.573-.269Z" fill="#0f1034" fill-rule="evenodd"/>
    </g>
  </g>
</svg>
