<?xml version="1.0" encoding="utf-8"?>
<!-- Generator: Adobe Illustrator 24.0.0, SVG Export Plug-In . SVG Version: 6.00 Build 0)  -->
<svg version="1.1" id="Logo_Full_color" xmlns="http://www.w3.org/2000/svg" xmlns:xlink="http://www.w3.org/1999/xlink" x="0px"
	 y="0px" viewBox="0 0 124.1 88.4" style="enable-background:new 0 0 124.1 88.4;" xml:space="preserve">
<style type="text/css">
	.st0{opacity:0.76;}
	.st1{fill-rule:evenodd;clip-rule:evenodd;fill:#FFFFFF;stroke:#FFFFFF;stroke-width:0.4;stroke-miterlimit:10;}
	.st2{fill-rule:evenodd;clip-rule:evenodd;fill:url(#Capa_818_1_);}
	.st3{fill-rule:evenodd;clip-rule:evenodd;fill:url(#Capa_819_1_);}
	.st4{fill-rule:evenodd;clip-rule:evenodd;fill:url(#Capa_820_1_);}
	.st5{fill-rule:evenodd;clip-rule:evenodd;fill:url(#Capa_821_1_);}
</style>
<g id="name_02" class="st0">
	<path id="Capa_788" class="st1" d="M29.2,84.5c0-0.5-0.1-1.1-0.2-1.6c-0.1-0.4-0.4-0.8-0.7-1.2c-0.3-0.3-0.7-0.6-1.1-0.7
		c-0.4-0.2-0.9-0.3-1.4-0.2h-2.6v7.4h2.6c0.5,0,0.9-0.1,1.4-0.2c0.4-0.2,0.8-0.4,1.1-0.7c0.3-0.3,0.6-0.7,0.7-1.2
		C29.2,85.6,29.2,85,29.2,84.5 M29.4,84.5c0,0.6-0.1,1.1-0.3,1.6c-0.2,0.4-0.4,0.9-0.7,1.2c-0.3,0.3-0.7,0.6-1.1,0.8
		c-0.5,0.2-0.9,0.3-1.4,0.3h-2.7v-7.7h2.7c0.5,0,1,0.1,1.4,0.3c0.4,0.2,0.8,0.4,1.1,0.8c0.3,0.3,0.6,0.8,0.7,1.2
		C29.3,83.4,29.4,83.9,29.4,84.5"/>
	<path id="Capa_789" class="st1" d="M36,80.6v0.1h-4.3v3.6h3.7v0.1h-3.7v3.7H36l0,0.1h-4.5v-7.7H36z"/>
	<path id="Capa_790" class="st1" d="M45.9,87.3C45.9,87.3,45.9,87.3,45.9,87.3L45.9,87.3c-0.1,0.2-0.2,0.4-0.4,0.5
		c-0.2,0.1-0.4,0.2-0.6,0.3c-0.2,0.1-0.5,0.2-0.7,0.2c-0.3,0.1-0.6,0.1-0.9,0.1c-0.5,0-1-0.1-1.4-0.3c-0.4-0.2-0.8-0.4-1.1-0.8
		c-0.3-0.4-0.6-0.8-0.7-1.2c-0.2-0.5-0.3-1.1-0.3-1.6c0-0.5,0.1-1.1,0.3-1.6c0.2-0.5,0.4-0.9,0.8-1.2c0.3-0.3,0.7-0.6,1.2-0.8
		c0.5-0.2,1-0.3,1.5-0.3c0.3,0,0.5,0,0.8,0.1c0.2,0,0.4,0.1,0.6,0.2c0.2,0.1,0.4,0.2,0.5,0.3c0.2,0.1,0.4,0.3,0.5,0.4l0,0
		c0,0,0,0,0,0c0,0-0.1,0-0.1-0.1c0,0-0.1-0.1-0.2-0.2s-0.2-0.1-0.3-0.2c-0.1-0.1-0.3-0.1-0.4-0.2c-0.2-0.1-0.4-0.1-0.6-0.2
		c-0.2,0-0.5-0.1-0.8-0.1c-0.5,0-1,0.1-1.4,0.3c-0.4,0.2-0.8,0.4-1.1,0.8c-0.3,0.3-0.6,0.8-0.7,1.2c-0.2,0.5-0.3,1-0.3,1.6
		c0,0.5,0.1,1.1,0.3,1.6c0.2,0.4,0.4,0.9,0.7,1.2c0.3,0.3,0.7,0.6,1.1,0.8c0.4,0.2,0.9,0.3,1.4,0.3c0.3,0,0.6,0,0.8-0.1
		c0.2,0,0.5-0.1,0.7-0.2c0.2-0.1,0.4-0.2,0.6-0.3C45.5,87.6,45.7,87.5,45.9,87.3C45.8,87.3,45.9,87.3,45.9,87.3"/>
	<path id="Capa_791" class="st1" d="M48.1,85.6h4l-1.9-4.5c0,0,0-0.1,0-0.1l0-0.1c0,0,0,0.1,0,0.1s0,0.1,0,0.1L48.1,85.6z
		 M53.3,88.3h-0.1c0,0-0.1,0-0.1-0.1l-1.1-2.6h-4L47,88.3c0,0,0,0.1-0.1,0.1h-0.1l3.2-7.7h0.1L53.3,88.3z"/>
	<path id="Capa_792" class="st1" d="M55.1,84.5h1.5c0.3,0,0.7,0,1-0.1c0.3-0.1,0.5-0.2,0.8-0.4c0.2-0.2,0.4-0.4,0.5-0.6
		c0.1-0.3,0.2-0.5,0.2-0.8c0-0.5-0.2-1-0.6-1.4c-0.5-0.3-1.1-0.5-1.7-0.4h-1.6C55.1,80.8,55.1,84.5,55.1,84.5z M55.1,84.6v3.7H55
		v-7.7h1.8c0.6,0,1.3,0.1,1.8,0.5c0.4,0.3,0.7,0.9,0.6,1.5c0,0.3-0.1,0.6-0.2,0.8c-0.1,0.2-0.3,0.5-0.5,0.6
		c-0.2,0.2-0.5,0.3-0.8,0.4c-0.3,0.1-0.7,0.2-1,0.2c0,0,0.1,0,0.1,0.1c0,0,0.1,0.1,0.1,0.1l3,3.6h-0.1c0,0,0,0-0.1,0
		c0,0-0.1,0-0.1-0.1l-2.9-3.4c0,0-0.1-0.1-0.1-0.1c0,0-0.1,0-0.1-0.1c0,0-0.1,0-0.1,0c-0.1,0-0.1,0-0.2,0L55.1,84.6L55.1,84.6z"/>
	<path id="Capa_793" class="st1" d="M66.1,80.6v0.1h-2.9v7.5h-0.1v-7.5h-2.9v-0.1H66.1L66.1,80.6z"/>
	<path id="Capa_794" class="st1" d="M67.2,85.6h4l-1.9-4.5c0,0,0-0.1,0-0.1s0-0.1,0-0.1c0,0,0,0.1,0,0.1s0,0.1,0,0.1L67.2,85.6z
		 M72.4,88.3h-0.1c0,0-0.1,0-0.1-0.1l-1.1-2.6h-4l-1.1,2.6c0,0,0,0.1-0.1,0.1h-0.1l3.2-7.7h0.1L72.4,88.3z"/>
	<path id="Capa_795" class="st1" d="M76.9,88.3c0.3,0,0.6,0,0.9-0.1c0.2,0,0.5-0.1,0.7-0.2c0.2-0.1,0.4-0.1,0.6-0.2
		c0.2-0.1,0.4-0.2,0.6-0.3v-2.4H78c0,0-0.1,0-0.1,0c0,0,0,0,0,0V85h1.9v2.5c-0.2,0.1-0.4,0.2-0.6,0.3c-0.2,0.1-0.4,0.2-0.7,0.3
		c-0.2,0.1-0.5,0.1-0.8,0.2c-0.3,0-0.6,0.1-0.9,0.1c-0.5,0-1-0.1-1.5-0.3c-0.4-0.2-0.8-0.4-1.2-0.8c-0.3-0.4-0.6-0.8-0.7-1.2
		c-0.4-1.1-0.4-2.2,0-3.3c0.2-0.5,0.4-0.9,0.8-1.2c0.3-0.3,0.7-0.6,1.2-0.8c0.5-0.2,1-0.3,1.6-0.3c0.3,0,0.5,0,0.8,0.1
		c0.2,0,0.4,0.1,0.7,0.2c0.2,0.1,0.4,0.2,0.6,0.3c0.2,0.1,0.4,0.2,0.5,0.4l0,0c0,0,0,0,0,0c-0.1,0-0.1-0.1-0.2-0.1
		c-0.1-0.1-0.3-0.2-0.4-0.3c-0.2-0.1-0.5-0.2-0.7-0.3c-0.9-0.2-1.8-0.2-2.6,0.1c-0.4,0.2-0.8,0.4-1.1,0.8c-0.3,0.3-0.6,0.8-0.7,1.2
		c-0.2,0.5-0.3,1.1-0.3,1.6c0,0.5,0.1,1.1,0.3,1.6c0.2,0.4,0.4,0.9,0.7,1.2c0.3,0.3,0.7,0.6,1.1,0.8C75.9,88.2,76.4,88.3,76.9,88.3"
		/>
	<path id="Capa_796" class="st1" d="M86.5,80.6v0.1h-4.3v3.6h3.7v0.1h-3.7v3.7h4.4l0,0.1h-4.5v-7.7H86.5L86.5,80.6z"/>
	<path id="Capa_797" class="st1" d="M88.8,80.7l5.4,7.4c0,0,0,0,0-0.1v-7.4h0.1v7.7h0c0,0,0,0-0.1,0l-5.5-7.4c0,0,0,0,0,0.1v7.4
		h-0.1v-7.7L88.8,80.7C88.7,80.6,88.7,80.7,88.8,80.7"/>
	<path id="Capa_798" class="st1" d="M97,85.6h4L99,81.1c0,0,0-0.1,0-0.1s0-0.1,0-0.1l0,0.1c0,0,0,0.1,0,0.1L97,85.6z M102.2,88.3
		h-0.1c0,0-0.1,0-0.1-0.1l-1.1-2.6h-4l-1.1,2.6c0,0,0,0.1-0.1,0.1h-0.1l3.2-7.7H99L102.2,88.3z"/>
</g>
<g id="Name_01">
	<path id="Capa_801" class="st1" d="M0,71.3c0-2.9,1.7-5.6,4.4-5.6c0.6,0,1.2,0.2,1.8,0.5c0,0,0.1,0,0.2,0.1c0.2,0,0.2-0.3,0.3-0.6
		v2.2c-0.1-0.4-0.2-0.7-0.4-1.1c-0.4-0.5-0.9-0.7-1.5-0.7c-1.8,0-3,2.6-3.1,5.4c0,4,2.4,5.7,5.2,5.7c2,0,4-0.9,5.5-2.3
		c-0.9,1.5-3.8,2.9-6.6,2.9C2.8,77.8,0,76.2,0,71.3"/>
	<path id="Capa_802" class="st1" d="M7.5,76.1l0.9-0.1v-9l-0.9-0.1h3.2L9.9,67v8.7h3.7c0.7,0,1.3-0.6,1.3-1.3c0-0.1,0-0.2,0-0.2v1.9
		L7.5,76.1L7.5,76.1z"/>
	<path id="Capa_803" class="st1" d="M19.7,65.8l0.9-1.4h0.7l-1.1,1.4H19.7z M16.7,72.9V67l-0.9-0.1h3.2L18.2,67c0,3.6,0,2.1,0,5.7
		c0,1.5,0.2,3.1,2.1,3.1s2.1-1.6,2.1-3.1l0-0.9V67L22,66.8h1.4L23.2,67v5.9c0,1.8-1.5,3.2-3.2,3.2C18.1,76.1,16.7,74.6,16.7,72.9"/>
	<path id="Capa_804" class="st1" d="M24.8,74.9l-0.3,1.1v-3.2c0,0.4,0.1,0.7,0.3,1.1v0c0.5,1.1,1.6,1.9,2.8,1.9
		c0.9,0.1,1.8-0.5,2-1.4c0-0.4-0.2-0.7-0.5-1c-1.4-1.3-4-1.1-4.5-3.3c-0.1-0.3-0.1-0.5-0.1-0.8c0-1.7,1.5-2.4,2.9-2.4
		c1-0.1,1.9,0.3,2.5,1.1l0.3-1.1v3.2c0-0.4-0.1-0.7-0.3-1l0,0c-0.5-1.1-1.6-1.9-2.8-1.9c-1.1,0-2,0.6-2,1.4c0,0.4,0.2,0.7,0.5,1
		c1.4,1.3,4,1.1,4.5,3.3c0.1,0.3,0.1,0.6,0.1,0.8c0,1.7-1.5,2.4-2.9,2.4C26.4,76.1,25.5,75.7,24.8,74.9"/>
	<path id="Capa_805" class="st1" d="M33,76.1l0.9-0.1v-8.7h-1.2c-0.7,0-1.3,0.6-1.3,1.3c0,0.1,0,0.2,0,0.2v-1.9h6.5v1.9
		c0.1-0.7-0.3-1.4-1-1.5c-0.1,0-0.2,0-0.2,0h-1.2v8.7l0.9,0.1L33,76.1L33,76.1z"/>
	<path id="Capa_806" class="st1" d="M38.9,76.1l0.9-0.1V67l-0.9-0.1h7.4v1.9c0.1-0.7-0.3-1.4-1-1.5c-0.1,0-0.2,0-0.2,0h-3.7v3.7H44
		c0.6,0,0.6-0.8,0.6-1.3v3c0-0.5,0-1.3-0.6-1.3h-2.7v4.4H45c0.7,0,1.3-0.6,1.3-1.3c0-0.1,0-0.2,0-0.2v1.9L38.9,76.1L38.9,76.1z"/>
	<path id="Capa_807" class="st1" d="M52.8,69.4c0.1-1-0.6-2-1.6-2.1c0,0,0,0-0.1,0h-1.5v4.2h1.5C52.2,71.3,52.9,70.4,52.8,69.4
		C52.8,69.4,52.8,69.4,52.8,69.4 M51.9,76.1l0.8-0.1l-2.1-4.1h-0.8v4.1l0.9,0.1h-3.2l0.9-0.1v-9l-0.9-0.1H52
		c1.4,0.1,2.4,1.4,2.3,2.7c-0.1,1.2-1.1,2.2-2.3,2.3l2.2,4.1l0.9,0.1L51.9,76.1L51.9,76.1z"/>
	<path id="Capa_808" class="st1" d="M64.5,76L64.5,76L64.5,76c-1.9-1.6-1.1-7.1-3.7-9.7v9.5l0.5,0.2h-1.5l0.5-0.2V66
		c-0.1-0.1-0.3-0.2-0.5-0.3h0.1C59,65.2,58,65,57.1,65c-0.6,0-1.2,0.1-1.9,0.2c0.8-0.2,1.7-0.3,2.5-0.3c6.4,0,6.1,6.3,7,9.6l3-8.8
		h2.4l-0.8,0.1v10.1l0.8,0.1h-3.2l0.8-0.1v-9.2l-2.9,8.2c0.1,0.8,0.8,1.4,1.5,1.5c-0.2,0.1-0.5,0.1-0.7,0.1
		C65.2,76.4,64.8,76.3,64.5,76"/>
	<path id="Capa_809" class="st1" d="M74.3,67.6L73,72.5h2.6L74.3,67.6z M75.8,76.1l0.8-0.1l-0.8-3.1h-2.8l-0.8,3l0.5,0.2h-1.5
		l0.6-0.2l2.4-9l0,0h1.5l2.4,9.1l0.9,0.1L75.8,76.1L75.8,76.1z"/>
	<path id="Capa_810" class="st1" d="M85.6,69.4c0.1-1-0.6-2-1.6-2.1c0,0,0,0-0.1,0h-1.5v4.2H84C85,71.3,85.8,70.4,85.6,69.4
		C85.6,69.4,85.6,69.4,85.6,69.4 M84.7,76.1l0.8-0.1l-2.1-4.1h-0.8v4.1l0.9,0.1h-3.2l0.9-0.1v-9l-0.9-0.1h4.7
		c1.4,0.1,2.4,1.4,2.3,2.7c-0.1,1.2-1.1,2.2-2.3,2.3l2.2,4.1l0.9,0.1L84.7,76.1L84.7,76.1z"/>
	<path id="Capa_811" class="st1" d="M89,76.1l0.9-0.1v-9L89,66.8h3.2L91.4,67v9l0.9,0.1C92.2,76.1,89,76.1,89,76.1z"/>
	<path id="Capa_812" class="st1" d="M94.9,76.1l0.9-0.1v-8.7h-1.2c-0.7,0-1.3,0.6-1.3,1.3c0,0.1,0,0.2,0,0.2v-1.9h6.5v1.9
		c0.1-0.7-0.3-1.4-1-1.5c-0.1,0-0.2,0-0.2,0h-1.2v8.7l0.9,0.1L94.9,76.1L94.9,76.1z"/>
	<path id="Capa_813" class="st1" d="M100.8,76.1l0.9-0.1v-9l-0.9-0.1h3.2l-0.9,0.1v9l0.9,0.1C104,76.1,100.8,76.1,100.8,76.1z"/>
	<path id="Capa_814" class="st1" d="M111.2,76.1l0.9-0.1v-8l-2.8,8.1h-0.4l0-0.1l-2.9-8.1v8l0.5,0.2h-1.5l0.5-0.2V67l-0.5-0.2h2.1
		l2.5,6.8l2.3-6.6l-0.8-0.1h3.2l-0.9,0.1v9l0.9,0.1L111.2,76.1L111.2,76.1z"/>
	<path id="Capa_815" class="st1" d="M122.5,71.6c0-2.2-1-4.4-2.7-4.4s-2.7,2.2-2.7,4.4c0,2.1,0.9,4.1,2.7,4.1S122.5,73.7,122.5,71.6
		 M115.5,71.4c0-2.3,1.4-4.6,4.3-4.6c2.3,0,4.3,1.8,4.3,4.2c0,0.1,0,0.2,0,0.4c0,2.3-1.5,4.7-4.3,4.7S115.5,73.7,115.5,71.4"/>
</g>
<g id="Symbol">
	
		<linearGradient id="Capa_818_1_" gradientUnits="userSpaceOnUse" x1="366.6151" y1="39.3785" x2="410.496" y2="39.3785" gradientTransform="matrix(1 0 0 -1 -337.312 63.344)">
		<stop  offset="0" style="stop-color:#0E87C5"/>
		<stop  offset="1" style="stop-color:#302458"/>
		<stop  offset="1" style="stop-color:#302458"/>
	</linearGradient>
	<path id="Capa_818" class="st2" d="M42.3,2.3c-6.9,3.5-11.6,10.2-12.7,17.9C27.3,37,40.7,47.9,40.7,47.9c-8.7-12-4.6-19.3-4.3-22
		c0.1-0.5,0.2-1,0.3-1.4C41.7,14,49.5,11.1,51.5,10.6c0.3-0.1,0.3-0.3,0.6-0.4c14.6-4.1,21.1,3.7,21.1,3.7C66.4,0,53.6,0.1,53.6,0.1
		C53,0,52.3,0,51.6,0C48.4,0,45.2,0.8,42.3,2.3z"/>
	
		<linearGradient id="Capa_819_1_" gradientUnits="userSpaceOnUse" x1="372.0887" y1="30.8341" x2="412.841" y2="30.8341" gradientTransform="matrix(1 0 0 -1 -337.312 63.344)">
		<stop  offset="0" style="stop-color:#1C8ECE"/>
		<stop  offset="1" style="stop-color:#141126"/>
		<stop  offset="1" style="stop-color:#141126"/>
	</linearGradient>
	<path id="Capa_819" class="st3" d="M42.3,16c0,0-15.8,14.3-1.7,32c0,0,16.5,14.1,34.9,5.7c0,0-28.5,6.4-29.4-23.4
		c0.2-4,1.6-7.9,4.1-11.1c0,0,2.5-10.1,14.9-9.5c-2-0.6-4.2-0.9-6.3-0.9C52.6,8.7,46.6,11.3,42.3,16z"/>
	
		<linearGradient id="Capa_820_1_" gradientUnits="userSpaceOnUse" x1="383.44" y1="26.636" x2="430.071" y2="26.636" gradientTransform="matrix(1 0 0 -1 -337.312 63.344)">
		<stop  offset="0" style="stop-color:#1C8ECE"/>
		<stop  offset="1" style="stop-color:#141126"/>
		<stop  offset="1" style="stop-color:#141126"/>
	</linearGradient>
	<path id="Capa_820" class="st4" d="M46.9,36.7c3.4,19.5,23.2,17.6,23.2,17.6c14.6,0.4,22.7-16.3,22.7-16.3
		C63.1,58.5,53,29.7,53,29.7c-2.5-2.9-3.4-6.8-2.7-10.6C43.8,27,46.9,36.7,46.9,36.7z"/>
	
		<linearGradient id="Capa_821_1_" gradientUnits="userSpaceOnUse" x1="390.266" y1="37.0797" x2="434.0879" y2="37.0797" gradientTransform="matrix(1 0 0 -1 -337.312 63.344)">
		<stop  offset="0" style="stop-color:#0E87C5"/>
		<stop  offset="1" style="stop-color:#302458"/>
		<stop  offset="1" style="stop-color:#302458"/>
	</linearGradient>
	<path id="Capa_821" class="st5" d="M78,33.6c0,0-12.4,6.3-25-3.9c0,0,6.7,18.6,23.8,15.4c0,0,7.6-0.6,16-7.1
		c0,0,10.4-18.1-2.2-30.8C90.5,7.1,95.9,25.7,78,33.6z"/>
</g>
</svg>
