<svg xmlns="http://www.w3.org/2000/svg" width="50.894" height="56.18" viewBox="0 0 50.894 56.18">
  <g id="_37" data-name="37" transform="translate(-3 -2.128)">
    <path id="Trazado_2495" data-name="Trazado 2495" d="M52.339,7.733a53.721,53.721,0,0,0-47.784,0A2.827,2.827,0,0,0,3,10.249V44.178a2.827,2.827,0,0,0,1.555,2.516L27.175,58a2.827,2.827,0,0,0,2.545,0l22.62-11.31a2.827,2.827,0,0,0,1.555-2.516V10.249a2.827,2.827,0,0,0-1.555-2.516Zm-4.1,34.693-19.792,9.9-19.792-9.9V12.03a48.066,48.066,0,0,1,39.584,0Z" transform="translate(0 0)" fill="#FFFFFF"/>
    <path id="Trazado_2496" data-name="Trazado 2496" d="M11.241,16.97a2.827,2.827,0,0,0-3.11,4.694l8.482,5.655a2.6,2.6,0,0,0,1.555.481,2.827,2.827,0,0,0,2.007-.82L34.313,12.842A2.839,2.839,0,0,0,30.3,8.827l-12.5,12.5Z" transform="translate(7.451 10.724)" fill="#FFFFFF"/>
  </g>
</svg>
