<svg xmlns="http://www.w3.org/2000/svg" width="36.368" height="35.481" viewBox="0 0 36.368 35.481">
  <path id="Trazado_2406" data-name="Trazado 2406" d="M26.837,5.548A3.548,3.548,0,1,1,30.385,9.1,3.536,3.536,0,0,1,26.837,5.548Zm7.1,31.933V26.837h4.435L33.862,13.3a3.565,3.565,0,0,0-3.371-2.43h-.213a3.548,3.548,0,0,0-3.371,2.43l-1.526,4.577a6.185,6.185,0,0,1,3.229,5.411V37.481ZM20.628,18.854a2.661,2.661,0,1,0-2.661-2.661A2.658,2.658,0,0,0,20.628,18.854ZM8.209,9.1A3.548,3.548,0,1,0,4.661,5.548,3.536,3.536,0,0,0,8.209,9.1Zm3.548,28.385V25.063h2.661V14.418A3.559,3.559,0,0,0,10.87,10.87H5.548A3.559,3.559,0,0,0,2,14.418V25.063H4.661V37.481Zm11.531,0v-7.1h1.774v-7.1A2.68,2.68,0,0,0,22.4,20.628H18.854a2.68,2.68,0,0,0-2.661,2.661v7.1h1.774v7.1Z" transform="translate(-2 -2)" fill="#f1b92a"/>
</svg>
