<svg xmlns="http://www.w3.org/2000/svg" width="114.511" height="114.511" viewBox="0 0 114.511 114.511">
  <g id="Grupo_1203" data-name="Grupo 1203" transform="translate(-5.114 47.261)">
    <path id="Trazado_2491" data-name="Trazado 2491" d="M26.769-40.232,12.143-25.607a10.342,10.342,0,0,0,0,14.625,10.342,10.342,0,0,0,14.625,0L41.394-25.607a10.341,10.341,0,0,0,0-14.625A10.341,10.341,0,0,0,26.769-40.232Z" transform="translate(0 0)" fill="none" stroke="#f1b92a" stroke-width="8"/>
    <path id="Trazado_2492" data-name="Trazado 2492" d="M40.241-31.635l-19.5,19.5a10.341,10.341,0,0,0,0,14.625,10.342,10.342,0,0,0,14.625,0l19.5-19.5a10.341,10.341,0,0,0,0-14.625A10.341,10.341,0,0,0,40.241-31.635Z" transform="translate(18.216 18.216)" fill="none" stroke="#f1b92a" stroke-width="8"/>
    <path id="Trazado_2493" data-name="Trazado 2493" d="M38.778-28.222,81.725,14.724c3.205,3.205,2.53,9.078-1.509,13.116S70.305,32.555,67.1,29.35L24.153-13.6" transform="translate(31.866 31.866)" fill="none" stroke="#f1b92a" stroke-width="8"/>
    <path id="Trazado_2494" data-name="Trazado 2494" d="M47.832-38.669,13.706-4.544A10.342,10.342,0,0,0,28.332,10.081L62.457-24.044a10.341,10.341,0,0,0,0-14.625A10.341,10.341,0,0,0,47.832-38.669Z" transform="translate(3.312 3.312)" fill="none" stroke="#f1b92a" stroke-width="8"/>
  </g>
</svg>
