<svg xmlns="http://www.w3.org/2000/svg" width="16.16" height="26.16" viewBox="0 0 16.16 26.16">
  <g id="Grupo_1199" data-name="Grupo 1199" transform="translate(-7.92 -2.92)">
    <path id="Trazado_2419" data-name="Trazado 2419" d="M21.18,2.92H10.82a2.9,2.9,0,0,0-2.9,2.9V26.18a2.9,2.9,0,0,0,2.9,2.9H21.18a2.9,2.9,0,0,0,2.9-2.9V5.82a2.9,2.9,0,0,0-2.9-2.9Zm.74,23.26a.74.74,0,0,1-.74.74H10.82a.74.74,0,0,1-.74-.74V5.82a.74.74,0,0,1,.74-.74H21.18a.74.74,0,0,1,.74.74Z"/>
    <path id="Trazado_2420" data-name="Trazado 2420" d="M17,23.92H15a1.08,1.08,0,1,0,0,2.16h2a1.08,1.08,0,0,0,0-2.16Z"/>
  </g>
</svg>
