<svg xmlns="http://www.w3.org/2000/svg" width="65.197" height="107" viewBox="0 0 65.197 107">
  <g id="Grupo_1202" data-name="Grupo 1202" transform="translate(-7.47 -2)">
    <path id="Trazado_2490" data-name="Trazado 2490" d="M72.6,38.7a3.621,3.621,0,0,0-.153-.749,3.876,3.876,0,0,0-.287-.715c-.057-.1-.065-.218-.126-.313l-8.85-13.375a11.643,11.643,0,0,0,5.541-10.089C68.728,7.144,64,2,58.184,2H22.156C16.343,2,11.616,7.144,11.616,13.464a11.635,11.635,0,0,0,4.979,9.7L8.039,37.031a2.173,2.173,0,0,0-.1.264,5.084,5.084,0,0,0-.417,1.46c-.008.1-.057.187-.057.287l.107,54.677A15.326,15.326,0,0,0,22.882,109h34.5A15.3,15.3,0,0,0,72.667,93.714V39.037C72.667,38.919,72.614,38.823,72.6,38.7ZM22.156,9.643H58.184c1.571,0,2.9,1.75,2.9,3.821a3.743,3.743,0,0,1-2.22,3.634A3.878,3.878,0,0,0,57.9,16.9H20.96a4.052,4.052,0,0,1-1.7-3.439C19.259,11.393,20.585,9.643,22.156,9.643ZM65.025,93.714a7.651,7.651,0,0,1-7.643,7.643h-34.5a7.677,7.677,0,0,1-7.666-7.65l-.054-26.555,2.262,2.182a11.03,11.03,0,0,0,14.605.489l5.407-4.555a4.2,4.2,0,0,1,4.945-.038l5.705,4.693a11.044,11.044,0,0,0,14.605-.665l2.331-2.3V93.714Zm0-37.492-7.7,7.586a3.459,3.459,0,0,1-4.387.2l-5.709-4.7a11.811,11.811,0,0,0-14.716.1l-5.4,4.555a3.442,3.442,0,0,1-4.379-.149L15.143,56.5l-.031-16.382,9.6-15.572H54.672L65.025,40.188Z" transform="translate(0 0)" fill="#f1b92a"/>
  </g>
</svg>
