<svg xmlns="http://www.w3.org/2000/svg" width="40.114" height="44" viewBox="0 0 40.114 44">
  <g id="Grupo_1173" data-name="Grupo 1173" transform="translate(0 44)">
    <path id="Trazado_2401" data-name="Trazado 2401" d="M14.073-44a2,2,0,0,0-2,2v10.58L.528-7.57A5.273,5.273,0,0,0,2.977-.527,5.273,5.273,0,0,0,5.274,0H34.841a5.273,5.273,0,0,0,5.273-5.273,5.274,5.274,0,0,0-.524-2.291L28.082-31.419V-42a2,2,0,0,0-2-2Zm17.8,29.648a10.474,10.474,0,0,0-5.388-1.638A10.265,10.265,0,0,0,21.065-14.3,14.25,14.25,0,0,1,13.51-11.99a13.464,13.464,0,0,1-5.752-1.334l-3.629,7.5a1.273,1.273,0,0,0,.591,1.7h0A1.272,1.272,0,0,0,5.274-4H34.841a1.273,1.273,0,0,0,1.273-1.273,1.273,1.273,0,0,0-.127-.553Zm-2.568-5.323L24.281-30.092a2,2,0,0,1-.2-.869V-40H16.073v9.039a2,2,0,0,1-.2.871L9.5-16.925a9.5,9.5,0,0,0,4.009.935A10.333,10.333,0,0,0,18.963-17.7h0a14.183,14.183,0,0,1,7.523-2.288A12.9,12.9,0,0,1,29.306-19.675Z" fill="#f1b92a" fill-rule="evenodd"/>
  </g>
</svg>
