<svg xmlns="http://www.w3.org/2000/svg" width="37.723" height="37.729" viewBox="0 0 37.723 37.729">
  <path id="Trazado_2405" data-name="Trazado 2405" d="M8.831,13.55A16.507,16.507,0,0,0,32.175,36.895C40.381,28.689,41.726,4,41.726,4S17.037,5.344,8.831,13.55Zm20.02,20.02a11.692,11.692,0,0,1-14.2,1.839A37.533,37.533,0,0,1,26.162,18.148,38.025,38.025,0,0,0,11.142,32.3a11.762,11.762,0,0,1,1.038-15.422c4.1-4.1,15.492-6.626,24.359-7.687C35.477,18.054,32.954,29.443,28.851,33.57Z" transform="translate(-4.003 -4)" fill="#ffffff"/>
</svg>
