<svg xmlns="http://www.w3.org/2000/svg" width="60" height="49.515" viewBox="0 0 60 49.515">
  <path id="_23" data-name="23" d="M31.977,53.285a3.008,3.008,0,0,1-1.775-.572L7.912,36.289a1.564,1.564,0,0,1-.331-.3,18.817,18.817,0,0,1,24.4-28.517A18.831,18.831,0,0,1,56.523,9.306h0a18.861,18.861,0,0,1,0,26.682,1.565,1.565,0,0,1-.331.3l-22.441,16.3A3.008,3.008,0,0,1,31.977,53.285ZM11.521,31.536,31.977,46.577,52.432,31.536a12.875,12.875,0,0,0-.15-18.049h0a12.845,12.845,0,0,0-18.049,0,3.008,3.008,0,0,1-4.272,0,12.9,12.9,0,0,0-18.44,18.049Z" transform="translate(-2.052 -3.77)" fill="#FFFFFF"/>
</svg>
