<svg xmlns="http://www.w3.org/2000/svg" width="41.467" height="54.428" viewBox="0 0 41.467 54.428">
  <path id="Trazado_2498" data-name="Trazado 2498" d="M20.733-8.04A20.832,20.832,0,0,1,41.467,12.693,20.733,20.733,0,0,1,0,12.693,20.832,20.832,0,0,1,20.733-8.04Zm0,5.183a15.624,15.624,0,0,0-15.55,15.55,15.55,15.55,0,1,0,31.1,0A15.624,15.624,0,0,0,20.733-2.857ZM19.562,3.4a1.306,1.306,0,0,1,2.342,0l1.954,3.959a1.306,1.306,0,0,0,.983.714l4.366.635a1.306,1.306,0,0,1,.723,2.227l-3.16,3.078a1.306,1.306,0,0,0-.376,1.156l.746,4.351A1.306,1.306,0,0,1,25.247,20.9l-3.906-2.054a1.305,1.305,0,0,0-1.215,0L16.219,20.9a1.306,1.306,0,0,1-1.894-1.376l.746-4.349a1.305,1.305,0,0,0-.375-1.156l-3.161-3.081a1.306,1.306,0,0,1,.724-2.227l4.367-.635a1.306,1.306,0,0,0,.983-.714ZM36.283-21v7.775l-3.532,2.949A25.748,25.748,0,0,0,23.325-13.1V-21ZM18.142-21v7.9a25.749,25.749,0,0,0-9.423,2.82L5.183-13.223V-21Z" transform="translate(0 21.001)" fill="#FFFFFF"/>
</svg>
